<svg id="Layer_1" data-name="Layer 1" xmlns="http://www.w3.org/2000/svg" viewBox="0 0 450 450"><defs><style>.cls-1{fill:#f5f5f5;}.cls-2{fill:#e5e5e5;}.cls-3,.cls-5,.cls-6{fill:none;stroke-linejoin:round;}.cls-3,.cls-6{stroke:#b2b2b2;}.cls-4{fill:#b2b2b2;}.cls-5{stroke:#e2e2e2;}.cls-5,.cls-6{stroke-linecap:round;}</style></defs><title>Cake walk</title><rect class="cls-1" x="-1.1" y="0.5" width="452" height="448"/><path class="cls-1" d="M1.18,252.22,1,438.5v7.93l111.16-.19h20.93l164.73.66,139.14.61,11.27.11c2.74,0,3.79.34,1.26.4-18.51.44-33.36,1.15-49.24,1.79-3.41.13-8.74.15-13.28.2l-64,.64c-17,.19-33.91.1-51,0l-65-.2c-10.73,0-21.6.09-32.27.18-27.67.23-55.32.33-83.35.19l-48.84-.11-45.75-.11q.09-43.19.17-86.4,0-60.42,0-120.92,0-18.6.05-37.24c0-33.32.21-66.69-.06-100,0-4.57,0-9.31,0-13.95V46.28q0-24-.1-47.88l47.61-.16H72.34l95.39-.12L232.78-2l51.14,0,160.53.07h8.79q0,31.68-.1,63.35l-.2,149-.06,60.45c0,19.45,0,38.72-.28,57.76-.22,16.56-.29,33.48-.32,50.67-.11,19.32-.22,38.55-.33,57.8,0,3-.07,6.14-.15,8.62a12.19,12.19,0,0,1-.3,2.73,11.51,11.51,0,0,1-.19-2.38c-.06-2.74-.12-5.71-.14-8.7q-.35-46-.7-92.07c-.07-17.66-.14-35.55-.21-53.3q-.35-74.21-.48-148.67c-.06-17.82-.13-35.57-.2-53.39s-.05-35.66-.08-53.48V1.9l-144.06.25-114,.19-85.95.24-20.91.06L1.25,2.85l.09,39.8q0,22.1,0,44.25-.1,82.65-.2,165.3Z"/><path class="cls-2" d="M274.62,380.34l-.19,5.87a1.81,1.81,0,0,0,.17,1,1.57,1.57,0,0,0,.77.54,7,7,0,0,0,5.7-.26,6.66,6.66,0,0,1,2.9-1.19,2.26,2.26,0,0,0,1.07-.08,1,1,0,0,0,.28-1.35,3.64,3.64,0,0,0-1.05-1.09,10.47,10.47,0,0,1-2.7-3.36,1.06,1.06,0,0,0-.34-.47,1,1,0,0,0-.6-.13c-2.08-.05-4.28-.07-6.07,1"/><path class="cls-2" d="M141.76,367.07a8.3,8.3,0,0,0-1.33-6,24.34,24.34,0,0,0-4.21-4.69c-.18-.17-.41-.35-.64-.27a1,1,0,0,0-.23.17l-1.55,1.54a4.54,4.54,0,0,0-.64.75,3.41,3.41,0,0,0-.15,2.5,7.46,7.46,0,0,0,.92,2.33c1.43,2.24,4.21,3.13,6.76,3.86.43.13,1.08.12,1.13-.33"/><path class="cls-2" d="M221.7,110.36c5.77,1.11,12.34-1.54,14.17-7.13a11.63,11.63,0,0,0-7.23-14.12,16.19,16.19,0,0,0-9.49.33,7.43,7.43,0,0,0-3.81,2.14c-1.25,1.53-1.29,3.69-1.26,5.67C214.12,100.56,213.77,108.84,221.7,110.36Z"/><path class="cls-3" d="M221.7,110.36c5.77,1.11,12.34-1.54,14.17-7.13a11.63,11.63,0,0,0-7.23-14.12,16.19,16.19,0,0,0-9.49.33,7.43,7.43,0,0,0-3.81,2.14c-1.25,1.53-1.29,3.69-1.26,5.67C214.12,100.56,213.77,108.84,221.7,110.36Z"/><path class="cls-4" d="M219.37,108.84c.54-4.13,1.24-8.58,4.22-11.49,1.65-1.62,3.85-2.58,5.62-4.07s3.4-6,3.4-6a28.46,28.46,0,0,0,4.1-11.8c.42-3.8,0-8-2.47-10.89s-7.3-4-10.17-1.52c-1.14,1-1.83,2.41-2.85,3.53s-2.64,2-4,1.37a5.38,5.38,0,0,1-2-2.11,17.28,17.28,0,0,0-11.7-7.57c-4.75-.61-9.91,1.51-12.33,5.64s-1.88,9.28-1.26,14l1.79,13.55c-3,1.06-4,4.74-4.38,7.89-.71,5.87-.26,12.84,4.59,16.23,3.65,2.56,8.6,2.14,12.9,1a44.8,44.8,0,0,0,12-5.26Z"/><path class="cls-3" d="M219.36,108.84c.55-4.13,1.25-8.58,4.23-11.49,1.65-1.62,3.85-2.58,5.62-4.07s3.4-6,3.4-6a28.46,28.46,0,0,0,4.1-11.8c.42-3.8,0-8-2.47-10.89s-7.3-4-10.17-1.52c-1.14,1-1.83,2.41-2.85,3.53s-2.64,2-4,1.37a5.38,5.38,0,0,1-2-2.11,17.28,17.28,0,0,0-11.7-7.57c-4.75-.61-9.91,1.51-12.33,5.64s-1.88,9.28-1.26,14q.9,6.78,1.79,13.55c-3,1.06-4,4.74-4.38,7.89-.71,5.87-.26,12.84,4.59,16.23,3.65,2.56,8.6,2.14,12.9,1a44.8,44.8,0,0,0,12-5.26Z"/><path class="cls-5" d="M242.51,398.67c56.9-1.76,31.63-1.18,88.55-.28"/><path class="cls-5" d="M155.77,388.89l-41.77,1"/><path class="cls-2" d="M198.09,136.74c0-1.78-5.56-.48-7.1.41a18.58,18.58,0,0,0-4,3.56c-8.37,8.85-19.42,15.75-24.42,26.86l0,.23c-1.17,1.76-8,6.95-9.79,8.08-2.08,1.3-7.9,3.62-5,5.26,2.13,0,4.06-1.17,5.89-2.26,1.24,2.62-1.69,3.28-2.54,4.92-.49,1-.86,2.39.08,2.91s1.83-.39,2.43-1.16c.79-1,3.27-6.05,4.37-3-.1,2-2.19,4-2.29,6a1,1,0,0,0,.14.73.87.87,0,0,0,.54.24c1.84.23,3.14-1.79,3.57-3.6s.64-3.88,2.11-5l1.19-.64c4.11-1.13,8.4-1.43,12.61-2.09s8.48-1.76,11.95-4.24,8.72-9.14,8.37-13.39C196.19,160.53,198,142,198.09,136.74Z"/><path class="cls-3" d="M198.09,136.74c0-1.78-5.56-.48-7.1.41a18.58,18.58,0,0,0-4,3.56c-8.37,8.85-19.42,15.75-24.42,26.86l0,.23c-1.17,1.76-8,6.95-9.79,8.08-2.08,1.3-7.9,3.62-5,5.26,2.13,0,4.06-1.17,5.89-2.26,1.24,2.62-1.69,3.28-2.54,4.92-.49,1-.86,2.39.08,2.91s1.83-.39,2.43-1.16c.79-1,3.27-6.05,4.37-3-.1,2-2.19,4-2.29,6a1,1,0,0,0,.14.73.87.87,0,0,0,.54.24c1.84.23,3.14-1.79,3.57-3.6s.64-3.88,2.11-5l1.19-.64c4.11-1.13,8.4-1.43,12.61-2.09s8.48-1.76,11.95-4.24,8.72-9.14,8.37-13.39C196.19,160.53,198,142,198.09,136.74Z"/><path class="cls-1" d="M244.3,119.72c-4.5-8.2-13.54-12-24.47-10.1s-21.37,16.85-23.18,29.57c-1.82,20,3.63,40-3.64,59-3.63,7.27-9.08,18.17-2.72,23.62,11.81,10,27.92,17.75,42.61,22.66"/><path class="cls-6" d="M244.3,119.72c-4.5-8.2-13.54-12-24.47-10.1s-21.37,16.85-23.18,29.57c-1.82,20,3.63,40-3.64,59-3.63,7.27-9.08,18.17-2.72,23.62,11.81,10,27.92,17.75,42.61,22.66"/><path class="cls-6" d="M211.26,274c11.22,4.49,18.87,14.79,25.92,24.6a53.19,53.19,0,0,1,6.09,9.91c1.86,4.33,2.55,9.07,3.56,13.68,1.79,8.17,4.62,16.07,7.45,23.94,4.87,13.55,21.08,34.07,21.08,34.07h7s-3.71-50.49-3.58-77c.1-21.06,1.32-42.25-1.87-63.07,0,0-2.39-12.21-4.24-15.65-6.46-12-9.26-31.46-6.51-44.84"/><path class="cls-6" d="M274.9,380.5c.89,1.44-.55,5.4,0,7"/><path class="cls-6" d="M281.9,380.5c1.26,1.77,3.05,3,4,5"/><path class="cls-3" d="M273,386.17c1.84,1.5,4.21,3.09,6.4,2.18a13.4,13.4,0,0,0,1.94-1.26,7.24,7.24,0,0,1,6.84-.56c2.23,1,3.83,3.1,6.07,4.08a13.67,13.67,0,0,0,4.53.89,7.94,7.94,0,0,1,3.64.91,2.69,2.69,0,0,1,1.23,3.24q-15,.64-30,.49a32.57,32.57,0,0,1-.58-8.7Z"/><path class="cls-2" d="M220.87,129.62c-1.83,5.89,2,15.88,15.58,26.12,3.57,2.7,2.92,8.29,4.59,12.4,3.19,7.86,12.76,13.59,20.81,13.59s27.23-25.09,29.42-40.23c.65-4.45.76-9,2.09-13.29,0,0,4.57-12.62,11.93-15.46-2.33-1-5.06-.13-7.19,1.24s-3.93,3.23-6.16,4.44c-1.59.88-3.85,1.28-5-.11-.78-.92-.75-2.27-1.27-3.36s-2.34-1.7-2.8-.58a2,2,0,0,0,.1,1.37l3.33,10.7.74.48c-7.64,8.88-18.16,15.44-26.33,30l-5.83-9C246.9,102.5,225.9,113.5,220.87,129.62Z"/><path class="cls-3" d="M220.87,129.62c-1.83,5.89,2,15.88,15.58,26.12,3.57,2.7,2.92,8.29,4.59,12.4,3.19,7.86,12.76,13.59,20.81,13.59s27.23-25.09,29.42-40.23c.65-4.45.76-9,2.09-13.29,0,0,4.57-12.62,11.93-15.46-2.33-1-5.06-.13-7.19,1.24s-3.93,3.23-6.16,4.44c-1.59.88-3.85,1.28-5-.11-.78-.92-.75-2.27-1.27-3.36s-2.34-1.7-2.8-.58a2,2,0,0,0,.1,1.37l3.33,10.7.74.48c-7.64,8.88-18.16,15.44-26.33,30l-5.83-9C246.9,102.5,225.9,113.5,220.87,129.62Z"/><path class="cls-6" d="M257.19,111.93a509.29,509.29,0,0,0,69-2.82"/><path class="cls-6" d="M270.89,112.14l-1-9a2.42,2.42,0,0,1,.51-2.21,2.33,2.33,0,0,1,1.35-.37l42.29-2.63a2.24,2.24,0,0,1,1.31.18,2.21,2.21,0,0,1,.79,1.46,77.48,77.48,0,0,1,1.76,10.15"/><path class="cls-3" d="M278.73,98.71l-.46-7.24a2.57,2.57,0,0,1,.49-2.08,2.54,2.54,0,0,1,1.51-.48l25.87-2.45a2.16,2.16,0,0,1,3,1.94q.55,2.73,1.12,5.46Z"/><path class="cls-6" d="M192.9,197.5c13.09,2.95,30.6,5.6,44,5"/><path class="cls-6" d="M237.9,157.5c.43,31.33-1.55,74.7-7.92,105.37a6.62,6.62,0,0,0-.11,3.39,6.28,6.28,0,0,0,2.06,2.61c11.87,10.36,31.19,16.9,46.91,17.9"/><path class="cls-1" d="M194.93,199.34a8.33,8.33,0,0,0-11-4.27,1.76,1.76,0,0,0-.74.58c-.36.61.06,1.37.46,1.95,1.22,1.73,3.05,3.7,5.07,3.06a5.69,5.69,0,0,0,1.71-1.08,29.06,29.06,0,0,1,9.43-5.08c4,2-2.14,5.16-4.27,4.76Z"/><path class="cls-3" d="M194.93,199.34a8.33,8.33,0,0,0-11-4.27,1.76,1.76,0,0,0-.74.58c-.36.61.06,1.37.46,1.95,1.22,1.73,3.05,3.7,5.07,3.06a5.69,5.69,0,0,0,1.71-1.08,29.06,29.06,0,0,1,9.43-5.08c4,2-2.14,5.16-4.27,4.76Z"/><path class="cls-6" d="M225.92,284.5c-1.16,14.35-10.29,26.66-19.37,37.84A89.4,89.4,0,0,1,197,332.86a72.8,72.8,0,0,1-11.4,8.05,137.58,137.58,0,0,1-14,7.33c-10.73,4.81-16.7,11.58-28,14.82h-.91c-.82-1.71-6.07-6.88-6.9-8.59l55.15-82.57c-6.18-15.54-8.67-44.6-3-61.4"/><path class="cls-6" d="M141.83,366.83a8.73,8.73,0,0,0,1.07-3.33"/><path class="cls-3" d="M126.38,362.94c2.87,2.37,3.89,6.26,4.52,9.93a90.92,90.92,0,0,1,1.34,14.26s8.06,0,13.71-.29l0-.42a6.51,6.51,0,0,0-3.16-3,19.35,19.35,0,0,0-4.24-1.33v-.4q2-7,3.7-14.08a.73.73,0,0,0,0-.44c-.12-.32-.56-.33-.9-.3a8.42,8.42,0,0,1-6.95-2.54,6.34,6.34,0,0,1-1-7.13Z"/><path class="cls-6" d="M132.75,358.19a13.48,13.48,0,0,0,3.15-3.69"/><path class="cls-3" d="M300.91,85.43c-6-1.62-12.52.31-18.49-1.37l.18-.07q.56-4.09,1.09-8.2a2.08,2.08,0,0,1,.52-1.33,2,2,0,0,1,1.39-.35,77.92,77.92,0,0,1,15.68,1.54l.27,9.66Z"/><path class="cls-6" d="M311.79,79.09A18.48,18.48,0,0,1,315.62,91"/><path class="cls-6" d="M265.58,99.84a12.09,12.09,0,0,1,.1-8.24,35.48,35.48,0,0,1,3.91-7.44"/></svg>