<svg id="Layer_1" data-name="Layer 1" xmlns="http://www.w3.org/2000/svg" viewBox="0 0 450 450"><defs><style>.cls-1{fill:#f5f5f5;}.cls-2{fill:#e5e5e5;}.cls-3{fill:#b2b2b2;}.cls-4{fill:#e2e2e2;}</style></defs><title>Cake walk</title><rect class="cls-1" x="-1.1" y="0.5" width="452" height="448"/><path class="cls-2" d="M221.7,110.36c5.77,1.11,12.34-1.54,14.17-7.13a11.63,11.63,0,0,0-7.23-14.12,16.19,16.19,0,0,0-9.49.33,7.43,7.43,0,0,0-3.81,2.14c-1.25,1.53-1.29,3.69-1.26,5.67C214.12,100.56,213.77,108.84,221.7,110.36Z"/><path class="cls-3" d="M221.73,110.22a14.6,14.6,0,0,1,1.66-.25,6.63,6.63,0,0,0,1.78-.06,10.6,10.6,0,0,0,1.25-.24l.1,0a13.83,13.83,0,0,0,1.55-.34,11.12,11.12,0,0,0,1.38-.57l.34-.14a10.69,10.69,0,0,0,2.17-1.2.1.1,0,0,0,0,0c.23-.35.61-.51.9-.79a7.54,7.54,0,0,0,1.18-1.47l0-.06a4.18,4.18,0,0,0,.4-.68,3.9,3.9,0,0,0,.35-.71,8.65,8.65,0,0,0,.49-1.81c0-.34.09-.67.1-1l0-.81-.05-.81a3,3,0,0,0-.08-.52l-.11-.72c0-.1,0-.2-.08-.29s-.07-.14-.09-.22a6.21,6.21,0,0,0-.24-.81,7.54,7.54,0,0,0-.3-.79,12.46,12.46,0,0,0-.87-1.56,9.36,9.36,0,0,0-.8-1,13.68,13.68,0,0,0-1.33-1.41c-.34-.26-.65-.55-1-.78a4.17,4.17,0,0,0-.54-.31l-.55-.28a3.25,3.25,0,0,0-.54-.23l-.21-.06a5.09,5.09,0,0,0-1.22-.38,16.71,16.71,0,0,0-2.37-.35,11.62,11.62,0,0,0-1.18,0,1.51,1.51,0,0,0-.84.13.32.32,0,0,1-.17,0,18.3,18.3,0,0,0-3.27.37,7.5,7.5,0,0,0-1.48.55,7.4,7.4,0,0,0-1,.53,4.55,4.55,0,0,0-1,.86,3.91,3.91,0,0,0-.62,1,5.41,5.41,0,0,0-.41,1.64v0a11.22,11.22,0,0,0-.15,1.77L215,99c0,.44-.05.88,0,1.33a15.88,15.88,0,0,0,.3,2.07,9.92,9.92,0,0,0,.31,1.1,8.26,8.26,0,0,0,.49,1.19c.11.26.27.49.4.74a3.5,3.5,0,0,0,.47.71c.18.22.31.47.47.7a3,3,0,0,0,.39.41c.08.1.2.17.29.27s.37.37.56.55l.65.46a3.8,3.8,0,0,0,.79.36,3,3,0,0,1,.74.41,4.87,4.87,0,0,0,.52.37l.23.19a.33.33,0,0,1,.12.34c0,.2-.13.35-.29.36a4.1,4.1,0,0,1-.86,0,4.37,4.37,0,0,1-1.1-.39l-.53-.24-.5-.31a8.46,8.46,0,0,1-1.6-1.26c-.21-.23-.44-.45-.67-.66s-.41-.48-.61-.72a1.74,1.74,0,0,1-.13-.15,10.84,10.84,0,0,1-.77-1.52,14.93,14.93,0,0,1-.66-1.84c-.08-.32-.19-.64-.26-1-.12-.65-.26-1.29-.42-1.94a4.38,4.38,0,0,1,0-.52c-.06-.56-.08-1.13-.1-1.68,0,0,0,0,0-.07-.17-.21-.08-.43-.08-.64,0-.73.06-1.5.06-2.29a8.4,8.4,0,0,1,.39-2.13,5.55,5.55,0,0,1,1.67-2.68c.38-.34.8-.6,1.16-.93a2.77,2.77,0,0,1,.65-.31l.85-.38c.65-.27,1.28-.48,1.92-.68s1.18-.34,1.78-.47a10.1,10.1,0,0,1,1.65-.24c.9,0,1.79,0,2.69,0a10,10,0,0,1,1.61.25,11.89,11.89,0,0,1,2.43.73c.39.16.73.43,1.1.62l1.09.7c.33.27.68.52,1,.81l.76.74.67.8c.4.56.73,1.16,1.09,1.73a3.82,3.82,0,0,1,.44.91l.36.93a11.6,11.6,0,0,1,.55,2.16,9.42,9.42,0,0,1,.14,2.12l0,1.11-.15,1.12a.36.36,0,0,1,0,.11c-.11.4-.22.79-.36,1.17s-.3.76-.46,1.14a11.5,11.5,0,0,1-1.34,2,8.84,8.84,0,0,1-1.81,1.65c-.06,0-.15.06-.19.13-.2.36-.6.45-.92.64a16,16,0,0,1-1.64.86,12.93,12.93,0,0,1-1.23.46,9.65,9.65,0,0,1-1.08.33,8.3,8.3,0,0,1-1.1.24,4.4,4.4,0,0,1-.89.08h-1.13c-.67,0-1.34,0-2,0A1.18,1.18,0,0,1,221.73,110.22Z"/><path class="cls-3" d="M219.37,108.84c.54-4.13,1.24-8.58,4.22-11.49,1.65-1.62,3.85-2.58,5.62-4.07s3.14-3.94,2.27-6.08l1.13,0a28.46,28.46,0,0,0,4.1-11.8c.42-3.8,0-8-2.47-10.89s-7.3-4-10.17-1.52c-1.14,1-1.83,2.41-2.85,3.53s-2.64,2-4,1.37a5.38,5.38,0,0,1-2-2.11,17.28,17.28,0,0,0-11.7-7.57c-4.75-.61-9.91,1.51-12.33,5.64s-1.88,9.28-1.26,14l1.79,13.55c-3,1.06-4,4.74-4.38,7.89-.71,5.87-.26,12.84,4.59,16.23,3.65,2.56,8.6,2.14,12.9,1a44.8,44.8,0,0,0,12-5.26Z"/><path class="cls-3" d="M219.23,108.82a23.71,23.71,0,0,1,.27-4.44,21.37,21.37,0,0,1,1.62-4.82,11.54,11.54,0,0,1,2.2-3l.23-.21a37.63,37.63,0,0,1,3.74-2.59,9.22,9.22,0,0,0,2.76-2.65,6.3,6.3,0,0,0,.45-.8,3.53,3.53,0,0,0,.25-2.81l-.45-1.14,1.21.06.59,0c.1.06.14-.12.21-.2l.38-.63.4-.74a.53.53,0,0,0,.08-.17c.37-1,.93-2,1.31-3a25.65,25.65,0,0,0,1.28-5.09l0-.19A20.8,20.8,0,0,0,236,72a13.16,13.16,0,0,0-1.18-4.92,9.52,9.52,0,0,0-1.5-2.22,7.42,7.42,0,0,0-3.52-2.12,7.07,7.07,0,0,0-3.13-.09,5.05,5.05,0,0,0-.69.22,3.84,3.84,0,0,0-.49.27c-1.2.59-2,1.86-3,3.24a7.28,7.28,0,0,1-2.09,2,4.17,4.17,0,0,1-3.18.6,4,4,0,0,1-2-1.39c-.47-.57-.79-1.12-1.16-1.58a19.22,19.22,0,0,0-3.67-3.81,18.53,18.53,0,0,0-3-1.83,16,16,0,0,0-1.58-.6,15.65,15.65,0,0,0-1.63-.43,12,12,0,0,0-1.57-.2c-.2,0-.41,0-.61,0a11.48,11.48,0,0,0-3.4.41,11.92,11.92,0,0,0-5.43,3.07,9.56,9.56,0,0,0-1.71,2.5,5.82,5.82,0,0,0-.69,2.07,3.63,3.63,0,0,1-.1.42,25.06,25.06,0,0,0-.37,8.67c.14,1.43.41,2.87.62,4.31l.48,3.29.61,4,.27,1.88.14,1.07.12.85,0,.22s0,.08,0,.1l-.1,0-.39.18a4.46,4.46,0,0,0-1.3.73,4.72,4.72,0,0,0-.75.79,7.6,7.6,0,0,0-1,2l0,.08a18.85,18.85,0,0,0-.93,4.69,28,28,0,0,0,.17,6.86,14.09,14.09,0,0,0,.85,3.29,9.3,9.3,0,0,0,3.24,4.12,8.76,8.76,0,0,0,2.65,1.22,12,12,0,0,0,3.4.4,22.83,22.83,0,0,0,2.32-.17c1.62-.19,3.19-.69,4.82-1a14.59,14.59,0,0,0,1.58-.52l1.14-.4a42,42,0,0,0,4.31-1.72c.75-.36,1.49-.76,2.21-1.18l.78-.45.39-.22.2-.1c.08,0,.12-.06.13,0l.17-.13.26-.18c.46-.32.9-.67,1.36-1l.61-.43c.21-.14.42-.25.58-.13s.14.38-.11.69c-.46.55-.93,1.12-1.43,1.63l-.62.61a44.71,44.71,0,0,1-4.54,2.46,46.1,46.1,0,0,1-4.8,1.91c-1.51.52-3,1-4.58,1.44l-.46.11a21.21,21.21,0,0,1-4.36.43,13.09,13.09,0,0,1-5-.94,9.41,9.41,0,0,1-2.36-1.36,12.13,12.13,0,0,1-3.33-4.16,8.71,8.71,0,0,1-.52-1.31,19.73,19.73,0,0,1-.9-4.46,1.08,1.08,0,0,0,0-.19,5,5,0,0,1-.15-1.73,42.31,42.31,0,0,1,.51-6,11.6,11.6,0,0,1,2.11-5.2,6.34,6.34,0,0,1,1.54-1.42l.23-.13.15-.08.09,0c.09,0,0-.1,0-.16l-.42-3.49a32.25,32.25,0,0,0-.51-3.37c-.12-.54-.12-1.13-.2-1.69L189.26,80c-.25-1.69-.53-3.37-.72-5.11a29.2,29.2,0,0,1-.21-4.79,14.52,14.52,0,0,1,.8-4.38,12.57,12.57,0,0,1,8-7.76,14.33,14.33,0,0,1,6.53-.7,15.18,15.18,0,0,1,3.13.82,18,18,0,0,1,5.68,3.32,19.68,19.68,0,0,1,3.57,4A5.51,5.51,0,0,0,217.4,67,1.69,1.69,0,0,0,219,67a5.09,5.09,0,0,0,1.63-1.19A18,18,0,0,0,222.09,64a7.19,7.19,0,0,1,2.18-2.14,7.42,7.42,0,0,1,3-1,8.6,8.6,0,0,1,5.48,1.39,9.28,9.28,0,0,1,2.26,2,11.45,11.45,0,0,1,1.53,2.53l.12.28a17.28,17.28,0,0,1,1,6.17,27.39,27.39,0,0,1-3.07,11.89c-.08.17-.2.34-.26.51a6.83,6.83,0,0,1-.64,1.3c-.19.28-.37.58-.56.87-.06.05-.07.19-.17.17l-.28,0-.56,0-.62,0,.61-.87a5.18,5.18,0,0,1-.5,4.47,9.06,9.06,0,0,1-2.35,2.65c-1.56,1.22-3.26,2.09-4.63,3.25a10.78,10.78,0,0,0-1.5,1.52,10.58,10.58,0,0,0-1.41,2.31,19.77,19.77,0,0,0-1.29,4.8A5.66,5.66,0,0,1,219.23,108.82Z"/><path class="cls-4" d="M242.51,398.53a11.33,11.33,0,0,1,2-.52c.77,0,1.54-.09,2.31-.14l1.64-.15h.13l2.09-.07,1.95-.13h3.88a5.64,5.64,0,0,1,1.59-.05c.84,0,1.69-.07,2.53-.11h.09l2.14-.06,2.53-.12,1.38-.08L269,397l.71,0,1,0h.4l.31-.05,2.27-.05,2.4-.11c.6,0,1.19,0,1.78-.07.88-.06,1.76,0,2.63,0,.59,0,1.16,0,1.74,0,.29,0,.57,0,.85,0h1.65l.31,0c.58,0,1.16,0,1.74,0,1.08,0,2.15.06,3.22.09l1.56,0a2.77,2.77,0,0,0,1.11-.05.81.81,0,0,1,.22,0c1.41.14,2.81.29,4.22.39.68.05,1.36,0,2,0h1.56l1.91,0h4.27l2.36.07,3.33.08c.57,0,1.13.11,1.69.12.91,0,1.81,0,2.71,0l1.52,0,1.73-.05c.39,0,.77,0,1.16,0a17.48,17.48,0,0,1,2.4,0,4.28,4.28,0,0,0,.8,0h.58l2.22.18c.4,0,.8,0,1.2,0a3.18,3.18,0,0,1,1.14.16c.26.09.52.16.78.24s.23.08.35.12a.33.33,0,0,1,.23.31.36.36,0,0,1-.27.41,4.51,4.51,0,0,1-1,.16c-.92,0-1.84-.05-2.76-.07l-2.4-.09c-.74,0-1.49.06-2.23.1l-.22,0-2,0h-2.32l-1.2,0a18.51,18.51,0,0,0-2.35.13c-.21,0-.42,0-.63,0h-2s-.06,0-.09,0c-.26.16-.52.06-.78.06-.92,0-1.84-.12-2.76-.09s-1.63-.1-2.45-.12c-1.13,0-2.25-.12-3.38-.16a7.8,7.8,0,0,0-1.6,0,4.2,4.2,0,0,1-.79-.05h-1.07l-2.4,0-2.18,0c-.65,0-1.3,0-1.95,0a29.5,29.5,0,0,0-3.11-.12c-.62,0-1.24,0-1.86-.05l-2.88,0c-.47,0-.95-.06-1.42-.05l-2.93.05-2.4,0c-.78,0-1.57,0-2.35,0s-1.54,0-2.31,0-1.72,0-2.58,0-1.63,0-2.45,0-1.72.06-2.57.1h-.14c-.93,0-1.87,0-2.8.05s-1.87,0-2.8.05-1.9,0-2.85,0a.82.82,0,0,0-.27,0,3.66,3.66,0,0,1-1.32.05c-.72,0-1.45,0-2.18.06l-1.55,0-2.67.11c-.35,0-.71,0-1.06,0s-.9-.05-1.34,0q-1.2,0-2.4.12A1.56,1.56,0,0,1,242.51,398.53Z"/><path class="cls-4" d="M155.77,389c-.35.13-.63.5-1,.48a5,5,0,0,0-1.09.1l-.78.11h-.06l-1,0c-.31,0-.62.07-.93.1h-.23l-1.55,0h0c-.25.15-.51,0-.76,0-.4,0-.79,0-1.19.06h-1.05L145,390l-.65,0-1,0-.34,0h-.65a.74.74,0,0,1-.14,0l-1.07,0-1.13.08c-.28,0-.56,0-.84,0s-.83,0-1.24,0-.55,0-.82,0l-.4,0h-.4l-.37,0-.15,0a7.48,7.48,0,0,0-.82,0c-.5,0-1,0-1.51,0-.25,0-.49,0-.73,0s-.36-.07-.53.07-.07,0-.1,0c-.67-.09-1.33-.2-2-.25a5.18,5.18,0,0,0-1,.08l-.74.06-.9.11-.83.05-1.16.08h-1.13l-1.57,0c-.27,0-.54-.07-.8-.07-.43,0-.86,0-1.28.07l-.71.06-.82.1c-.18,0-.36.06-.54.07a4,4,0,0,1-1.14,0,1.16,1.16,0,0,0-.37,0h-.28l-1-.11a5.19,5.19,0,0,0-.56,0,.79.79,0,0,1-.55-.12,3.6,3.6,0,0,0-.37-.22l-.17-.12c-.06,0-.11-.11-.12-.3s0-.37.11-.42a1.38,1.38,0,0,1,.48-.19c.43-.05.87,0,1.3,0s.76,0,1.13,0a7.62,7.62,0,0,0,1-.16l.1,0,1,0,1.08-.09c.19,0,.38-.06.57-.07a4.35,4.35,0,0,0,1.11-.21,1.37,1.37,0,0,1,.29,0l1-.07s0,0,0,0c.12-.17.25-.09.37-.08a9.4,9.4,0,0,0,1.3,0,11.24,11.24,0,0,1,1.16,0c.53,0,1.06,0,1.59,0a1.66,1.66,0,0,0,.76-.09c.12-.05.25,0,.37,0l.51-.05,1.12-.13,1-.1a5.67,5.67,0,0,1,.92,0,8.05,8.05,0,0,0,1.47,0,8.81,8.81,0,0,1,.89,0l1.36-.05c.22,0,.45.05.67,0l1.39,0,1.13,0a6.86,6.86,0,0,0,1.11,0c.37-.05.73.07,1.09,0s.82.06,1.22,0a9,9,0,0,1,1.16,0l1.21-.06h.07a11.63,11.63,0,0,0,1.32,0c.44,0,.88.06,1.32,0s.9.08,1.35.07c0,0,.08,0,.12,0,.21-.15.42,0,.62,0s.69,0,1,0h.74l1.25-.07a4.38,4.38,0,0,1,.51,0c.21,0,.42.06.63.06a10.54,10.54,0,0,0,1.13-.08C155.33,388.29,155.55,388.45,155.77,389Z"/><path class="cls-2" d="M198.09,136.74c0-1.78-5.56-.48-7.1.41a18.58,18.58,0,0,0-4,3.56c-8.37,8.85-19.42,15.75-24.42,26.86l0,.23c-1.17,1.76-8,6.95-9.79,8.08-2.08,1.3-7.9,3.62-5,5.26,2.13,0,4.06-1.17,5.89-2.26,1.24,2.62-1.69,3.28-2.54,4.92-.49,1-.86,2.39.08,2.91s1.83-.39,2.43-1.16c.79-1,3.27-6.05,4.37-3-.1,2-2.19,4-2.29,6a1,1,0,0,0,.14.73.87.87,0,0,0,.54.24c1.84.23,3.14-1.79,3.57-3.6s.64-3.88,2.11-5l1.19-.64c4.11-1.13,8.4-1.43,12.61-2.09s8.48-1.76,11.95-4.24,8.72-9.14,8.37-13.39C196.19,160.53,198,142,198.09,136.74Z"/><path class="cls-3" d="M191,136.27a15.27,15.27,0,0,1,3.44-.79,11.34,11.34,0,0,1,1.75-.07,3.17,3.17,0,0,1,1.83.52c.38.38.27.74.22.79s-.18-.05-.31-.2c-.4-.31-1.08-.2-2-.12a13.72,13.72,0,0,0-2.8.66,12.76,12.76,0,0,0-1.31.52,4.4,4.4,0,0,0-.57.31c-.19.13-.38.26-.56.4a26.17,26.17,0,0,0-3.19,3.21q-1.62,1.74-3.32,3.39c-3.56,3.44-7.3,6.63-10.73,10.06a58.33,58.33,0,0,0-6.49,7.52c-.62.94-1.27,1.86-1.8,2.84a14.08,14.08,0,0,0-.8,1.48l-.37.75-.18.36s0,0,0,0l-.21.57a10.92,10.92,0,0,1-1.35,1.51c-.45.42-.89.82-1.35,1.21-.9.78-1.82,1.53-2.75,2.26s-1.72,1.34-2.61,2a28.22,28.22,0,0,1-2.82,1.89c-1,.53-1.93,1-2.81,1.53a10.44,10.44,0,0,0-1.2.81l-.07.06h0s0,0,0,0h0c.14,0,.33-.07.49-.12a7.14,7.14,0,0,0,1-.35l.25-.1.2-.09.27-.14c.36-.18.73-.36,1.09-.58l2.21-1.29.34.78a13.12,13.12,0,0,1,.48,1.31,3.27,3.27,0,0,1-.52,2.72,8.32,8.32,0,0,1-1.28,1.31l-.42.37a2.89,2.89,0,0,0-.31.28,1.91,1.91,0,0,0-.38.52,3.19,3.19,0,0,0-.27.72,1.3,1.3,0,0,0-.06.31c0,.07,0,0,0,.07a.06.06,0,0,0,0,.06s0,0,.07,0l.05,0a2,2,0,0,0,.26-.2,4.88,4.88,0,0,0,.53-.57c.13-.17.32-.49.5-.76.37-.58.71-1.13,1.21-1.78l.67-.79a6.08,6.08,0,0,1,.76-.62,2,2,0,0,1,1.56-.34,2,2,0,0,1,1.28,1,3.59,3.59,0,0,1,.21.38l0,.41a3.06,3.06,0,0,0,.07.4.69.69,0,0,1,0,.43l-.1.49-.18.5a7.47,7.47,0,0,1-.35.82c-.18.38-.38.72-.57,1.06a11.8,11.8,0,0,0-.92,1.86c0,.09-.06.18-.08.26s0,0,0,.05a.2.2,0,0,0,0,.11c0,.1.11.11.19.11l.16,0a2.73,2.73,0,0,0,.4-.23,3.74,3.74,0,0,0,.73-.83,5.51,5.51,0,0,0,.53-1.09,9.41,9.41,0,0,0,.35-1.28,13.82,13.82,0,0,1,.91-3,4.78,4.78,0,0,1,1-1.43c.11-.12.22-.19.36-.32a1.13,1.13,0,0,1,.26-.16l.17-.09.64-.34.16-.08a2.24,2.24,0,0,1,.27-.13l.44-.11.72-.17,1.44-.31c1.93-.37,3.86-.61,5.78-.85,4.65-.58,9.31-1.09,13.49-3a18.36,18.36,0,0,0,2.95-1.7,20.37,20.37,0,0,0,2.56-2.28,26,26,0,0,0,4.12-5.55,12.3,12.3,0,0,0,1.24-3.15,6.55,6.55,0,0,0,.15-1.64c0-.69.11-1.19.16-1.79l.66-7,.18-2c.34-3.21.56-6.41.68-9.62,0-1,.16-2,.25-3,0-.23.16-.54.24-.55s.18.27.21.52a43.55,43.55,0,0,1,.11,7.61c-.37,5-.75,10-1.19,14.95l0,.63,0,.15v0s0,.06,0,0V161a7.56,7.56,0,0,1-.14,1.44,12.37,12.37,0,0,1-.85,2.6,23.46,23.46,0,0,1-2.72,4.53,29.54,29.54,0,0,1-3.51,3.92,18.5,18.5,0,0,1-4.42,3c-5.23,2.56-11,2.91-16.3,3.77a52.56,52.56,0,0,0-5.45,1.12l-1,.52-.1.08-.17.17a2.37,2.37,0,0,0-.28.4,7.67,7.67,0,0,0-.77,2.33l-.24,1.1a8.1,8.1,0,0,1-.37,1.23,6.82,6.82,0,0,1-1.41,2.3,4.38,4.38,0,0,1-1.25.91l-.45.17-.53.11a3.36,3.36,0,0,1-1.05,0,1.81,1.81,0,0,1-1.52-1.1,2.17,2.17,0,0,1-.14-1c0-.18,0-.36,0-.54s.09-.42.1-.52a8.94,8.94,0,0,1,.78-1.92l.58-1.06.41-.79s0,0,0,0,0,0,0,0h0l-.06.08c-.09.14-.18.25-.29.42s-.42.62-.63,1-.4.65-.72,1.08a5.83,5.83,0,0,1-1,1.07,3.68,3.68,0,0,1-.82.51,2.62,2.62,0,0,1-1.12.23,2.28,2.28,0,0,1-1.88-1.06,2.5,2.5,0,0,1-.38-1.07,3.75,3.75,0,0,1,0-.58,2.81,2.81,0,0,1,0-.44,5.41,5.41,0,0,1,.47-1.44,4.54,4.54,0,0,1,.41-.71,6.2,6.2,0,0,1,.51-.59c.17-.17.34-.33.5-.47l.25-.21s.06-.05.07-.09,0-.11,0-.07l-.09,0-.59.25c-.3.12-.6.22-.92.32l-.48.13-.25,0-.12,0-.21,0a4.39,4.39,0,0,1-1.54,0,1.77,1.77,0,0,1-.33-.08l-.31-.21a2.79,2.79,0,0,1-.52-.51,2,2,0,0,1-.43-1.33,2.52,2.52,0,0,1,.55-1.36,5.66,5.66,0,0,1,1-1,14.39,14.39,0,0,1,1.59-1c1-.6,2.12-1.13,3-1.68,1.47-.95,3-2.14,4.52-3.27s3-2.32,4.29-3.57a8.65,8.65,0,0,0,.86-.91l-.17.47a1.29,1.29,0,0,1,.15-.62l.19-.38.34-.66c.23-.43.43-.89.69-1.31.51-.84,1-1.7,1.57-2.5a52.2,52.2,0,0,1,3.58-4.65,101.92,101.92,0,0,1,10-9.53c1.94-1.71,3.87-3.42,5.72-5.19.93-.88,1.83-1.79,2.72-2.7a27.77,27.77,0,0,1,2.85-2.77,8.23,8.23,0,0,1,1.65-1Z"/><path class="cls-2" d="M284.91,384.5a3.32,3.32,0,0,0-2.11-1.84.54.54,0,0,1-.07-.29c.09-1.46-1.8-1.69-2.48-.71a2.53,2.53,0,0,0-.43-.51,2.23,2.23,0,0,0-2.06-.5,1.18,1.18,0,0,0-.91.93,2.47,2.47,0,0,0-1,1.86c-.07,1.6.26,5.12,2.74,4.23a1.94,1.94,0,0,0,1.25-1.42A4.88,4.88,0,0,0,282,386a5.83,5.83,0,0,0,1.36.53A1.38,1.38,0,0,0,284.91,384.5Z"/><path class="cls-2" d="M284.79,384.56c-.21-.17-.62-.12-.68-.28a1.07,1.07,0,0,0-.45-.39,2.59,2.59,0,0,0-.38-.17h0l-.22-.13-.06,0-.14-.06-.27-.09-.33-.09a2.11,2.11,0,0,1-.3-.6c0-.08,0-.17,0-.26l0-.39a.31.31,0,0,0-.07-.14h0c-.11.09-.11-.05-.19-.08a.62.62,0,0,0-.4.05h0l-.11,0a1.33,1.33,0,0,0-.23.24c-.16.16-.32.35-.48.53l-.13.16a1.92,1.92,0,0,1-.38-.38l-.4-.45a3.57,3.57,0,0,0-.27-.28.77.77,0,0,0-.15-.1,1.09,1.09,0,0,0-.35-.16h-.13l-.19,0h-.08s-.05,0-.07,0l-.26,0-.09,0c-.05,0,0,.07-.06.14l-.13.44-.34.3c-.12.17-.27.23-.34.4s-.11.19-.15.3,0,.11,0,.16l0,.16v.22s0,.06,0,.09a2.67,2.67,0,0,0,0,.49c0,.3,0,.61,0,.91a2.73,2.73,0,0,0,.1.41c0,.09,0,.22.13.27s0,0,0,.05a2.18,2.18,0,0,0,.19,1,.36.36,0,0,0,.31.14h.23a1.53,1.53,0,0,0,.34-.14,1.28,1.28,0,0,0,.31-.15.93.93,0,0,0,.24-.29h0l.07-.09s.09-.19.12-.29l.21-.7,0-.09.94.06h.63a3.37,3.37,0,0,0,.44,0l.14,0,.18-.07c.19-.06.37-.15.56-.22l.31.15.37.16.22.07a3.64,3.64,0,0,0,.44.07h.25c.11,0,.11-.11.17,0s0,0,0,0h0a.24.24,0,0,0,.21-.08s0-.1,0-.15,0-.09.13-.16a.72.72,0,0,0,.19-.2l.09-.11a.66.66,0,0,1,.27-.17c.18-.09.35-.13.41-.08a.64.64,0,0,1,.28.33,1.62,1.62,0,0,1-.15,1.1,1.8,1.8,0,0,1-.64.73,2.51,2.51,0,0,1-.85.42.29.29,0,0,1-.1,0A3.24,3.24,0,0,1,283,387c-.26-.06-.53-.14-.78-.22a1.64,1.64,0,0,0-.19,0h0a1.66,1.66,0,0,1-.38.29.9.9,0,0,1-.22.06,6.54,6.54,0,0,1-.75.13s0,0,0,0c0,.17,0,.08,0,.08s-.05,0-.08,0a.06.06,0,0,0,0,.06s0,0,0,.06a1.09,1.09,0,0,1-.17.22,5.25,5.25,0,0,1-.42.4,2.6,2.6,0,0,1-1.37.59,4.54,4.54,0,0,0-.71.15c-.13.06-.26-.06-.39-.08a2,2,0,0,1-.53-.14,2.47,2.47,0,0,1-1-.68,3.47,3.47,0,0,1-.54-.77,2.26,2.26,0,0,1-.27-.72,9.65,9.65,0,0,0-.15-1.13,3.49,3.49,0,0,1,0-.65c0-.34-.05-.67,0-1a3.76,3.76,0,0,1,.12-.58,3.53,3.53,0,0,1,.44-1.2,4.73,4.73,0,0,1,.31-.43c.09-.11.31-.32.27-.28h0s0,0,.09-.11a4.29,4.29,0,0,1,.26-.45,1.88,1.88,0,0,1,1.12-.66,3.47,3.47,0,0,1,1.06-.05,2.18,2.18,0,0,1,1,.32,3.72,3.72,0,0,1,.48.27l.18.12h0s.06.18.1.13l.06-.07a.1.1,0,0,1,.05,0l.17-.05.64-.12a1.9,1.9,0,0,1,1.26.4s.05.08.1.08c.28,0,.36.29.45.47a1.84,1.84,0,0,1,.24.77c0,.06,0,.17.07.18h0l.18,0a4,4,0,0,1,.41.21,1.53,1.53,0,0,1,.3.27c.12.12.21.27.32.38a7.63,7.63,0,0,1,.59.67C285.33,384,285.27,384.2,284.79,384.56Z"/><path class="cls-2" d="M139.75,360.8a1.22,1.22,0,0,0-.67-.21,9.07,9.07,0,0,0-1.23-1.25,1.24,1.24,0,0,0-.27-.17,1.37,1.37,0,0,0-1.45-2.11,2.78,2.78,0,0,0-2,3.07,3.88,3.88,0,0,0,.11.49,2.68,2.68,0,0,0,.6,3.51,8.14,8.14,0,0,0,4.75,1.75h.11a1.36,1.36,0,0,0,1.55-.94A3.51,3.51,0,0,0,139.75,360.8Z"/><path class="cls-2" d="M139.68,360.91c-.3,0-.38.32-.78.27h-.09a3.88,3.88,0,0,0-.62-.58l-.38-.26,0,0-.25-.23a2.48,2.48,0,0,0-.48-.31l-.57-.27.19-.42a2.2,2.2,0,0,1,.15-.26l.11-.21c0-.07.07-.13.06-.13a.5.5,0,0,0,0-.12.7.7,0,0,0,0-.25h0c-.17,0-.07-.13-.12-.19a.28.28,0,0,0-.24-.11h0a.63.63,0,0,0-.27,0,2.37,2.37,0,0,0-.47.26l-.21.2a1.83,1.83,0,0,0-.3.32l-.06.13a1,1,0,0,0-.09.18.16.16,0,0,0,0,.07s0,0,0,.07a1.41,1.41,0,0,0-.06.94,6.18,6.18,0,0,0,.19.81v0a6.19,6.19,0,0,1-.39.57.51.51,0,0,0-.09.18,1.54,1.54,0,0,1-.07.27.8.8,0,0,0,0,.15c0,.05,0,.11,0,.16a.83.83,0,0,0,0,.15s0,0,0,.06a1,1,0,0,0,.12.33,6.34,6.34,0,0,0,.34.62,3.08,3.08,0,0,0,.26.24c.06.06.09.17.24.11s0,0,.05,0a3.29,3.29,0,0,0,.79.79,1.54,1.54,0,0,0,.53.14l.42.09.53,0,.49.06c.23,0,.46,0,.69.05h0l.23,0,.12,0h.19l.07,0a.43.43,0,0,0,.27-.1s.14,0,.19-.09a1.81,1.81,0,0,0,.12-.53,1.22,1.22,0,0,0,0-.33,1.54,1.54,0,0,0-.09-.37.68.68,0,0,1-.09-.22c0-.17-.2-.28-.16-.47s0-.1-.08-.15a.21.21,0,0,1-.06-.1,2.38,2.38,0,0,0-.17-.47.91.91,0,0,0-.19-.2.27.27,0,0,1-.11-.28,1.46,1.46,0,0,0,0-.3v-.15a.54.54,0,0,1,.12-.3c.1-.16.22-.3.29-.3a.56.56,0,0,1,.37.05,2.68,2.68,0,0,1,.65.65,4,4,0,0,1,.4.69c.12.21.29.41.42.64,0,0,0,0,.05.07.06.22.1.45.14.68a5.32,5.32,0,0,1,.06.81,2.08,2.08,0,0,1,0,.43c-.05.28-.05.53-.12.92a1.26,1.26,0,0,1-.13.26,2.53,2.53,0,0,1-.71.71s0,0,0,0c0,.21-.22.19-.34.23a2.57,2.57,0,0,1-1.17,0l.17,0h-.24a5.14,5.14,0,0,1-.76-.16,8.08,8.08,0,0,1-1-.29.91.91,0,0,0-.52-.06c-.1,0-.16-.07-.24-.1l-.35-.08a5.82,5.82,0,0,1-.79-.22,4,4,0,0,1-.71-.3,2.14,2.14,0,0,1-.6-.39l-.78-.89a3,3,0,0,1-.37-.62,4.59,4.59,0,0,1-.42-1.07,5.76,5.76,0,0,1,0-.59,3.16,3.16,0,0,1,.17-1.24c0-.07.05-.15.08-.21s.09-.19.08-.15,0,0,0,0,0,0,0,0,0-.09,0-.14a1.6,1.6,0,0,0,0-.41,3.41,3.41,0,0,1,.12-.89,3.64,3.64,0,0,1,.38-.94,2.36,2.36,0,0,1,.6-.74,4.34,4.34,0,0,1,.76-.65l0,0a5,5,0,0,1,1-.36,2.1,2.1,0,0,1,1.31.24,1.78,1.78,0,0,1,.79,1s0,.08,0,.1c.21.13.13.36.14.54a2.34,2.34,0,0,1,0,.46,1.13,1.13,0,0,1,0,.14.14.14,0,0,1,0,.07.33.33,0,0,1-.07.13s0,0,0,0l.16.09.07.06.16.14a1.51,1.51,0,0,1,.22.28,3.13,3.13,0,0,0,.22.36c.09.09.11.14.19.17h.13C139.73,360.08,139.89,360.35,139.68,360.91Z"/><path class="cls-3" d="M127.69,363c.9-1.16,1.34-2.38,2.3-3.27a32.79,32.79,0,0,0,3-3.24l2-2.44.16-.19c.88-1,1.79-2,2.63-3l2.28-3c.19-.24.4-.47.6-.71l2-2.4,2-2.46a.61.61,0,0,0,.1-.14,12.89,12.89,0,0,1,1.85-2.43c1-1.28,1.93-2.59,2.84-3.93l.1-.14,2.39-3.32c.94-1.32,1.85-2.65,2.74-4l1.46-2.2,2.36-3.44c.26-.37.47-.77.72-1.15l1-1.56c.14-.21.29-.42.42-.64s.17-.36.28-.53l2.41-3.62c.83-1.29,1.6-2.61,2.41-3.91.6-1,1.24-1.92,1.81-2.9.85-1.44,1.83-2.81,2.7-4.24.57-1,1.19-1.87,1.79-2.81.29-.45.54-.93.82-1.39l.85-1.38.78-1.32c.1-.17.18-.35.29-.52.59-.93,1.18-1.87,1.74-2.83,1-1.78,2.15-3.49,3.22-5.23.52-.85,1-1.73,1.5-2.58a7.23,7.23,0,0,0,1-1.89,1.25,1.25,0,0,1,.21-.37c1.49-2.25,3-4.51,4.41-6.8.69-1.11,1.24-2.31,1.84-3.46l.7-1.32.1-.21.06-.12c.08-.09,0-.16,0-.22l-.64-1.54c-.25-.57-.47-1.15-.67-1.74-.37-1.1-.76-2.19-1.08-3.3-.46-1.52-.91-3-1.29-4.58l0-.08c-.38-1.49-.63-3-.95-4.49-.39-2.13-.8-4.25-1.05-6.4-.14-1.09-.18-2.19-.27-3.28l-.28-2.62-.22-2.62c-.09-1-.15-2-.2-2.94s-.17-2.25-.18-3.37c0-.76-.07-1.51,0-2.26a32.18,32.18,0,0,1,.24-4.7,11.45,11.45,0,0,0,.14-1.56c0-.37.07-.75.12-1.13.2-1.44.59-2.86.85-4.29.17-.77.33-1.54.5-2.31a6.08,6.08,0,0,1,.75-2.14c.28-.45.51-.93.76-1.38.12-.2.24-.4.37-.59s.28-.37.57-.3a.59.59,0,0,1,.44.68,12.18,12.18,0,0,1-.29,1.92c-.24.83-.42,1.69-.63,2.54s-.44,1.68-.56,2.55c-.24,1.5-.57,3-.7,4.52-.07.7-.13,1.4-.13,2.11v2.12c0,.14,0,.28,0,.42-.1,1.27-.07,2.54-.08,3.81,0,1.47.11,2.93.18,4.4,0,.76.16,1.51.21,2.27a30.27,30.27,0,0,0,.65,4.44c.08.38.1.78.15,1.17l.59,3.83c0,.06,0,.12,0,.17a2.9,2.9,0,0,1,.36,1.44,46.5,46.5,0,0,0,.94,5.14c.38,1.51.61,3,1,4.53.29,1,.56,2.06.82,3.1s.59,2.05.91,3.06c.16.48.33,1,.51,1.42.09.24.18.47.29.7s.3.65.45,1a3.9,3.9,0,0,1,.26.64l-.33.58-.58.94c-.33.6-.63,1.22-1,1.83l-2.14,4.09-2,3.7c-.61,1.09-1.18,2.21-1.87,3.27-1.08,1.68-2.15,3.37-3.12,5.11-.59,1-1.26,2-1.88,3.07l-2.85,4.77c-.48.78-1,1.52-1.5,2.3l-3,4.81c-.81,1.31-1.61,2.63-2.46,3.91s-1.74,2.48-2.49,3.79-1.7,2.44-2.47,3.71c-.86,1.42-1.93,2.7-2.79,4.11s-1.81,2.57-2.71,3.85-1.85,2.74-2.78,4.12l-.14.21c-1,1.48-2.17,2.88-3.17,4.37s-2.19,2.86-3.2,4.35-2.32,2.83-3.43,4.29c-.1.13-.26.24-.32.39a8.79,8.79,0,0,1-1.53,2c-.89,1.08-1.77,2.17-2.65,3.25l-1.91,2.33c-1,1.35-2.2,2.63-3.32,3.93-.46.51-.95,1-1.42,1.49s-1.23,1.21-1.8,1.85c-1.1,1.1-2.17,2.21-3.23,3.34A3.25,3.25,0,0,1,127.69,363Z"/><path class="cls-1" d="M244.3,119.72c-4.5-8.2-19.56-12-24.47-10.1l.61,0c-13.8,3.21-22,16.83-23.79,29.55-1.82,20,3.63,40-3.64,59-3.63,7.27-9.08,18.17-2.72,23.62,11.81,10,25.43,16.34,40.11,21.26"/><path class="cls-3" d="M244.12,119.82a8.55,8.55,0,0,0-1.66-1.64c-.3-.23-.58-.45-.84-.69a7.7,7.7,0,0,1-.83-.7,13.3,13.3,0,0,0-1.93-1.56c-.72-.43-1.42-.87-2.18-1.24a27.91,27.91,0,0,0-3.27-1.43l-.28-.09c-.7-.28-1.41-.56-2.13-.78s-1.45-.44-2.19-.62a24.8,24.8,0,0,0-4.17-.6l-1-.08a10.22,10.22,0,0,0-3.35.32l-.39-2.27.61,0,7.07.35-6.85,2c-.9.26-1.81.46-2.7.76a1,1,0,0,0-.18.07,7.11,7.11,0,0,1-1.56.72c-.54.19-1.06.44-1.58.68a25.53,25.53,0,0,0-4.52,3.07l-.14.12-1.72,1.55c-.55.54-1.06,1.13-1.59,1.69s-1.14,1.44-1.71,2.16-1,1.52-1.51,2.31-1,1.72-1.44,2.63a39,39,0,0,0-1.93,4.34l-.5,1.48-.62,2a5.73,5.73,0,0,0-.21.84c0,.22,0,.45-.11.67l-.28,1.2-.21,1.2c-.07.4-.16.79-.2,1.2l-.08,1.25c0,.88-.12,1.75-.14,2.64l0,2.67c0,1.32,0,2.64,0,4,.1,2,0,3.91.1,5.88.06,1.29.07,2.59.11,3.89,0,.64.08,1.27.11,1.9l.07,1.91.08,1.8c0,.23,0,.47,0,.7,0,1.32.05,2.62.08,3.93.09,2.43,0,4.86-.14,7.29-.08,1.18-.06,2.37-.18,3.55a10.29,10.29,0,0,0-.12,2.54,2.24,2.24,0,0,1,0,.51,72.31,72.31,0,0,1-2.22,9.44c-.41,1.51-.85,3-1.32,4.51l-.14.43a2.65,2.65,0,0,1-.19.52l-.38.79-.74,1.58c-.59,1.29-1.14,2.6-1.66,3.9s-1,2.43-1.33,3.66a21.83,21.83,0,0,0-1,5.07v.09a9.34,9.34,0,0,0,.62,4.51,6.18,6.18,0,0,0,.78,1.34,5.68,5.68,0,0,0,.53.57,6.09,6.09,0,0,0,.57.56c1,.77,1.89,1.58,2.88,2.33s1.91,1.61,2.93,2.34c1.63,1.18,3.33,2.26,5,3.3,1,.58,1.94,1.13,2.91,1.68,1.14.59,2.28,1.2,3.44,1.75l2.31,1.11c1.59.81,3.28,1.4,4.83,2.3a15.68,15.68,0,0,0,1.63.7c.39.18.8.32,1.19.51,1.49.71,3,1.4,4.52,2.06.82.34,1.67.63,2.51.94a10.54,10.54,0,0,1,2.34,1.07c.5.32,1,.59,1.55.89.23.13.46.28.68.42s.42.32.36.61-.34.47-.76.4a17.35,17.35,0,0,1-2.25-.49c-2-.64-3.9-1.45-5.84-2.2-1.69-.66-3.33-1.43-5-2.14s-3.12-1.25-4.66-1.91c-.15-.06-.32-.11-.47-.18-1.36-.67-2.71-1.34-4.05-2-.78-.39-1.55-.8-2.32-1.22s-1.54-.83-2.3-1.27-1.6-.87-2.37-1.36c-1.53-.93-3.05-1.85-4.61-2.75-.4-.24-.78-.54-1.16-.81q-1.91-1.35-3.74-2.8c-.06,0-.11-.1-.17-.11a4.13,4.13,0,0,1-1.46-1.06c-.43-.43-.86-.87-1.25-1.33a18.3,18.3,0,0,1-1-1.56,12.36,12.36,0,0,1-1-3.42,15.55,15.55,0,0,1,.48-6,37.94,37.94,0,0,1,2.69-7.38c.49-1.11,1.06-2.19,1.44-3.35a12.86,12.86,0,0,1,.84-1.6l.26-.55a.77.77,0,0,0,.06-.15l.09-.28.34-1.12c.24-.84.55-1.67.74-2.53l.6-2.56c.2-.77.28-1.57.43-2.35s.3-1.57.37-2.36c.16-1.43.33-2.85.49-4.29a47.68,47.68,0,0,0,.47-6.87c0-1.39.08-2.77.06-4.17,0-2.15-.13-4.31-.2-6.47,0-1.06,0-2.13,0-3.2l-.27-6.62c0-1.82-.12-3.63-.11-5.45,0-.89.05-1.79.07-2.68s.09-1.79.08-2.69a19.65,19.65,0,0,1,.17-2.65c.08-.89.17-1.77.25-2.66a42,42,0,0,1,1.39-5.86,18,18,0,0,1,.91-2.68c.33-.89.76-1.73,1.14-2.6s.87-1.79,1.3-2.69,1-1.73,1.48-2.6l.17-.26a30.66,30.66,0,0,1,1.95-2.62l1-1.26,1.1-1.21a22.93,22.93,0,0,1,2.38-2.24q1.29-1,2.61-2a17.3,17.3,0,0,1,2.89-1.66c.51-.23,1-.48,1.52-.69l1.55-.59a3.32,3.32,0,0,0,.58-.22,10.46,10.46,0,0,1,2.84-.85l.19,1.92h-.12l-.49,0-4.91-.24,4.59-1.61a12.19,12.19,0,0,1,4.77-.49,15.41,15.41,0,0,1,1.81.18c.6.07,1.2.18,1.79.3a33,33,0,0,1,5.93,1.71,20.74,20.74,0,0,1,2.24,1c.47.23.9.52,1.34.78s.89.54,1.32.83a23.21,23.21,0,0,1,4.4,3.49A4.19,4.19,0,0,1,244,118,4,4,0,0,1,244.12,119.82Z"/><path class="cls-3" d="M270.82,376.05c-3.44-4.72-6.74-9.53-9.8-14.52-1.54-2.49-3-5-4.35-7.64a63,63,0,0,1-3.59-8.09,209.89,209.89,0,0,1-7-22.07c-.31-1.29-.6-2.59-.84-3.87-.95-5.05-1.92-10-4.5-14.31-1.23-2.18-2.69-4.27-4.16-6.37s-3-4.19-4.49-6.24a87.22,87.22,0,0,0-8.35-9.83,52.43,52.43,0,0,0-4.85-4.21,38.32,38.32,0,0,0-5.43-3.41c-.61-.33-1.26-.6-1.87-.91-.45-.22-.58-.44-.14-.28a44.78,44.78,0,0,1,8.45,3.84,20.26,20.26,0,0,1,2,1.49,66.11,66.11,0,0,1,8.68,8.46,95.58,95.58,0,0,1,5.86,7.61,97.1,97.1,0,0,1,6.73,10.3,36.85,36.85,0,0,1,2.4,5.74,76.69,76.69,0,0,1,1.89,7.64c.52,2.54,1.09,5,1.74,7.55.74,2.91,1.65,5.82,2.59,8.7,1.24,3.76,2.53,7.57,3.91,11.25a77,77,0,0,0,5.24,10.58,205.92,205.92,0,0,0,12.56,18.68l2.09,2.76c.41.45,0,.27.66.31H278l3.33,0-.4-6.18q-.26-3.6-.55-7.17c-.07-.85-.13-1.74-.18-2.61-.52-8.57-1-17.1-1.57-25.64l-.24-5.22c-.27-5.95-.52-11.9-.69-17.87l-.13-6.1,0-6.1.13-9.59c.16-10,.36-20,0-30q-.18-6.28-.72-12.54c-.19-2.3-.45-4.6-.74-6.88-.16-1.12-.29-2.3-.48-3.38l-.7-3.39c-.49-2.26-1-4.51-1.62-6.72-.31-1.11-.62-2.21-1-3.26a13.79,13.79,0,0,0-.62-1.5l-.77-1.57a62.53,62.53,0,0,1-4-10.77A66.76,66.76,0,0,1,265,202c-.34-3.11-.53-6.3-.6-9.54a59.06,59.06,0,0,1,.83-10.88c.11-.56.24-1.14.36-1.6a1,1,0,0,1,.23-.47s0,.24,0,.46c-.06.51-.13,1.06-.22,1.62a69.55,69.55,0,0,0,.06,17.18,91.17,91.17,0,0,0,1.67,9.8,70.23,70.23,0,0,0,4.42,13.06l1.56,3.11a28.33,28.33,0,0,1,1.21,3.33c.68,2.24,1.24,4.51,1.77,6.78l1.1,4.89c.27,1.68.53,3.32.74,5,.43,3.32.77,6.66,1,10,.76,11.35.68,22.69.59,34-.06,7.1-.19,14.22,0,21.3.1,5.35.34,10.7.57,16.05l.19,3.91Q281,342,281.83,353.9c.17,2.75.33,5.51.5,8.26l.56,9,.68,10.21-7.84,0H275c-.16.05-.22-.09-.3-.19l-.24-.31-.65-.84-1-1.3L270.83,376Z"/><path class="cls-3" d="M274.58,380.69c.13,0,.46-.19.45-.14s.08.06.14.08a1,1,0,0,0,.13,0h0a.39.39,0,0,0,.06.11l.12.06a0,0,0,0,1,0,0l0,.21h0c.15,0,0,.05.05.08s.07.07.11.11h0a.67.67,0,0,0,.06.12s.08.07.11.11l.07.05.06.12,0,0,0,.06s0,0,0,0h0s0,.09,0,.12a1.31,1.31,0,0,0,.12.11s0,.06.07.08,0,.11.05.15,0,.07,0,.11l0,0s0,0,0,.05l0,0h0a.12.12,0,0,0,0,.1c.05,0,0,.13,0,.2s0,.05.05.08-.05.07.09,0,0,0,0,0a2.76,2.76,0,0,0-.17.35c0,.05.07.06.1.09l.08.07.12.07s0,.06.07.08l.11.12h0a.58.58,0,0,0,0,.14,1.07,1.07,0,0,1,.07.19s-.06.09-.05.12a.34.34,0,0,0,.09.14l.08.07.11.07s.07,0,.08,0,.14.05.05.14,0,0,0,0,0,0,0,0-.07.12-.09.17,0,.05,0,.07,0,.05-.11.11l-.2.12-.11.06a1.75,1.75,0,0,1-.29.11l-.39.12c-.09,0-.17,0-.19,0s0-.1,0-.15,0-.1,0-.15-.1-.05-.16-.07h0s0-.07,0-.1a.52.52,0,0,0-.11-.1s-.06,0-.07-.05a.33.33,0,0,0-.22-.05s0,0,0,0l-.08-.09h0c-.16.05-.09,0-.09,0s0-.12,0-.15,0-.11,0-.15,0-.14,0-.2,0-.07-.1-.05,0,0,0-.05,0,0-.05,0l-.14-.09a.47.47,0,0,1-.12-.07s-.08,0-.06-.09,0-.15,0-.19,0-.07,0-.1-.06-.09-.08-.14,0-.07,0-.09a.47.47,0,0,0-.08-.14.75.75,0,0,1-.07-.12s0-.12,0-.13,0-.11,0-.13,0-.13,0-.15,0-.1,0-.15a.87.87,0,0,0-.09-.11h0c0-.06,0-.13,0-.16s0-.13,0-.15,0-.14,0-.19,0,0,0,0,0,0,0-.06,0-.08,0-.11,0-.06,0-.08l-.11-.11s0-.05,0-.08,0-.08,0-.1a.2.2,0,0,0-.11-.09S274.1,381,274.58,380.69Z"/><path class="cls-3" d="M283.17,381c.13,0,.46-.2.46-.14s.09.08.16.1l.15,0h0a.43.43,0,0,0,.09.13.32.32,0,0,0,.14.08.06.06,0,0,1,0,0l.07.25s0,0,0,0,.05.06.07.1a.8.8,0,0,0,.13.13h0s0,.09.09.14l.14.13a.27.27,0,0,1,.08.07l.09.14.05,0s0,0,0,.06l0,0h0c0,.05.05.1.09.15l.14.12s0,.08.09.1,0,.14.09.18,0,.09,0,.13,0,0,.05,0,0,0,0,.06l0,.05h0a.17.17,0,0,0,.06.12c.06.06,0,.16.07.24s0,.06.06.1,0,.08.1,0,0,0,0,0a4.19,4.19,0,0,0-.1.42c0,.06.09.07.13.11l.1.08.14.08.09.1.14.14h0l.06.17a2.39,2.39,0,0,1,.12.22s0,.12,0,.16a.61.61,0,0,0,.12.16l.09.08.14.08s.07,0,.08.06.17.05.09.16,0,0,0,.05,0,0,0,0,0,.14-.05.21,0,0,.05.08,0,.05-.09.14l-.18.15-.1.07a1,1,0,0,1-.26.15,2.63,2.63,0,0,1-.39.17.67.67,0,0,1-.19,0c-.06,0,0-.13-.07-.19s0-.13,0-.18-.12-.06-.19-.09h0a.83.83,0,0,0-.07-.13.77.77,0,0,0-.13-.12l-.09-.05a.3.3,0,0,0-.23-.07s0,0,0,0l-.11-.11h0c-.16.07-.09,0-.1,0s0-.16-.06-.19,0-.14,0-.18,0-.18-.05-.26,0-.08-.12-.06,0-.05,0-.06a.15.15,0,0,0-.07-.05l-.17-.11a.71.71,0,0,1-.14-.1s-.1-.05-.09-.11,0-.18,0-.22,0-.1-.05-.14a1.67,1.67,0,0,0-.12-.16s0-.09,0-.12a1.13,1.13,0,0,0-.12-.18.67.67,0,0,1-.09-.14c0-.05,0-.14-.06-.16s0-.14-.05-.17,0-.15-.07-.18,0-.13,0-.18a1.49,1.49,0,0,0-.12-.14h0c0-.07,0-.16-.08-.2s0-.15-.08-.18,0-.17,0-.23,0,0,0,0-.05,0-.06-.07a.32.32,0,0,0-.08-.14.53.53,0,0,0-.06-.1l-.13-.14s0,0,0-.09,0-.09,0-.12a.3.3,0,0,0-.14-.11C282.59,381.5,282.71,381.38,283.17,381Z"/><path class="cls-3" d="M273.46,385.74c.13.05.51.06.48.13s.06.14.1.21a1.49,1.49,0,0,0,.12.14h0a1.38,1.38,0,0,0,0,.2c0,.06.06.11.08.17s0,0,0,0l0,.32s0,0,0,0,0,.09,0,.14a1,1,0,0,0,.05.24h0a1.41,1.41,0,0,0,0,.2c0,.08.05.15.07.23l0,.13,0,.2s0,.05,0,.07a.28.28,0,0,1,0,.09s0,0,0,0,0,0,0,0a1.55,1.55,0,0,0,0,.22c0,.07.05.15.06.22a1,1,0,0,0,0,.17c.05.08,0,.17,0,.25s0,.11,0,.16,0,.05,0,.08v.08a.22.22,0,0,0,0,.08s0,0,0,0a.33.33,0,0,0,0,.17c0,.1,0,.2-.05.3s0,.1,0,.15-.07.07.07.1,0,0,0,0-.21.27-.28.41,0,.13.06.19l.05.14c0,.06.06.12.08.18s0,.12,0,.17l.05.23h0c0,.07,0,.14,0,.22s0,.21,0,.31-.08.11-.09.16a.78.78,0,0,0,0,.26.37.37,0,0,0,0,.14l.08.17a.22.22,0,0,1,.05.11c0,.07.11.15,0,.22s0,0,0,.08a.06.06,0,0,1,0,.06c0,.06-.11.13-.15.2s0,.08,0,.11,0,.08-.14.11l-.23.06-.12,0h-.31a1.89,1.89,0,0,1-.41-.05c-.08,0-.16-.06-.18-.1s0-.16,0-.25.06-.14.06-.22-.08-.13-.13-.2l0,0a1.2,1.2,0,0,0,0-.19,1.6,1.6,0,0,0-.05-.21.6.6,0,0,1-.06-.11.37.37,0,0,0-.17-.22s0,0,0-.06l0-.18h0c-.17,0-.08-.05-.08-.07s.08-.17,0-.25.07-.15.06-.22.07-.21.08-.31,0-.1-.07-.15,0,0,0-.07a.26.26,0,0,0,0-.1l-.1-.21a1.67,1.67,0,0,1-.08-.2c0-.05-.06-.11,0-.17a.32.32,0,0,0,.06-.29s0-.11,0-.17,0-.17,0-.26,0-.09,0-.13a1.23,1.23,0,0,0,0-.27.75.75,0,0,1,0-.21c0-.07.08-.15,0-.22s.07-.14,0-.21.07-.16,0-.24,0-.15,0-.23a1.06,1.06,0,0,0-.05-.23h0c0-.09.05-.17,0-.26s.06-.17,0-.25.08-.19.06-.27,0,0,0,0,0-.07,0-.12a.46.46,0,0,0,0-.2.71.71,0,0,0,0-.14,2.1,2.1,0,0,0-.06-.24.26.26,0,0,1,0-.1s.06-.09.06-.13a.46.46,0,0,0-.08-.21S272.89,385.85,273.46,385.74Z"/><path class="cls-3" d="M273.09,386.07c.57.31,1.2.32,1.63.66a5.84,5.84,0,0,0,1.63.83,4.69,4.69,0,0,0,1.19.25h.09a2.74,2.74,0,0,0,1.37-.15,4.54,4.54,0,0,0,1.19-.79c.11-.09.23-.17.35-.25a7.74,7.74,0,0,1,2.81-1.21l.08,0a2.84,2.84,0,0,1,1.47-.21,8.46,8.46,0,0,1,2.35.19l.08,0a8.57,8.57,0,0,1,1.85.76,15,15,0,0,1,1.89,1.24l.94.71c.47.38.94.75,1.41,1.06l.48.27c.22.12.43.24.65.34l.27.12a1.55,1.55,0,0,1,.23.05,9.19,9.19,0,0,0,1.7.42c.63.09,1.28.12,1.95.16.5,0,1,.09,1.56.14a6.68,6.68,0,0,1,2.44.78,4.09,4.09,0,0,1,1.38,1.27,4.59,4.59,0,0,1,.46.81,3.53,3.53,0,0,1,.15.46,1.58,1.58,0,0,1,.05.25,2.09,2.09,0,0,1,0,.34,3.15,3.15,0,0,1-.15,1.19,3.75,3.75,0,0,1-.16.43c-.05.09-.05.24-.15.27l-.3.06a3,3,0,0,1-.63.09l-1,0c-.9.07-1.81,0-2.71,0l-1.32.05a2.26,2.26,0,0,0-.93.09.31.31,0,0,1-.19,0c-1.19-.06-2.39-.15-3.58-.19-.58,0-1.16.07-1.73.1l-1.32.07L289,397l-1.51.06-2.07.08h-4.86c-.48,0-.95-.08-1.43-.08-.77,0-1.53,0-2.3,0l-1.28,0-.73,0-.45,0H273c-.08,0-.2,0-.18-.07-.07-.31-.14-.61-.2-.92l-.29-1.38a4.54,4.54,0,0,1-.11-1,4.19,4.19,0,0,0-.09-.7c0-.16,0-.33-.05-.5,0-.65,0-1.3,0-1.94,0-.35,0-.7,0-1.05a2.27,2.27,0,0,1,.16-1c.1-.22.17-.45.26-.67s.08-.19.13-.28a.32.32,0,0,1,.32-.19c.2,0,.37.09.4.25a3.68,3.68,0,0,1,.14.85c0,.77-.05,1.54,0,2.3s0,1.34.08,2a16.3,16.3,0,0,0,.37,1.82,1.15,1.15,0,0,1,.06.17l.1.58c0,.06,0,.16.06.2h.22l1.73-.05,1-.05a13.36,13.36,0,0,0,2-.17,4.52,4.52,0,0,1,.52,0l1.73-.05s.05,0,.07,0c.21-.17.44-.08.66-.08a22.64,22.64,0,0,0,2.33,0c.69-.05,1.38.05,2.06,0,1,0,1.91,0,2.86,0a5.12,5.12,0,0,0,1.35-.09,2.52,2.52,0,0,1,.67,0l.9-.06,2-.14,1.84-.13c.55,0,1.09-.09,1.65-.07a25.44,25.44,0,0,0,2.62,0c.53,0,1.05,0,1.58,0,1.13-.06.83,0,.9-.12s0,0,0-.08a1,1,0,0,0-.09-.37,2.07,2.07,0,0,0-.51-.7,2.72,2.72,0,0,0-.78-.48,6.94,6.94,0,0,0-1.7-.41,19,19,0,0,0-1.95-.22,16.23,16.23,0,0,1-2-.34,8.55,8.55,0,0,1-2.25-.81,9.36,9.36,0,0,1-1.83-1.25L290,388.61l-.09-.06a7.94,7.94,0,0,0-1.83-1.23,5.81,5.81,0,0,0-2-.61,8,8,0,0,0-2.18,0c-.06,0-.14,0-.2,0a3,3,0,0,1-1,.33,5.85,5.85,0,0,0-1.46.85,13,13,0,0,1-1.16.78,4.21,4.21,0,0,1-2.55.52,3.6,3.6,0,0,1-1-.25c-.4-.14-.74-.36-1.11-.53a18.17,18.17,0,0,1-1.82-1.08A1.22,1.22,0,0,1,273.09,386.07Z"/><path class="cls-2" d="M230.69,115.5c-6,1.18-9.84,8-9.82,14.12s3.42,12,8,16c0,0,5.48,6.28,7.53,10.09s2.92,8.29,4.59,12.4c3.19,7.86,12.61,12.73,20.81,13.59l5.75-2.45a55.9,55.9,0,0,0,23.67-37.78c.65-4.45.76-9,2.09-13.29,0,0,4.57-12.62,11.93-15.46-2.33-1-5.06-.13-7.19,1.24s-3.93,3.23-6.16,4.44c-1.59.88-3.85,1.28-5-.11-.78-.92-.75-2.27-1.27-3.36s-2.34-1.7-2.8-.58a2,2,0,0,0,.1,1.37l3.33,10.7.74.48c-7.64,8.88-18.16,15.44-26.33,30l-5.83-9C248,117.85,240.9,113.5,230.69,115.5Z"/><path class="cls-3" d="M221.14,123.41a16.73,16.73,0,0,1,3.31-5,11.73,11.73,0,0,1,5.08-3c1.25-.26,1.41-.09.76.31a24,24,0,0,0-3.22,2.06,14.52,14.52,0,0,0-4.81,8.24c-1.15,4.93.44,10.18,3.39,14.29a25,25,0,0,0,1.88,2.34q.51.56,1.05,1.08c.18.17.35.35.54.51l.61.55c.19.19.23.26.33.37l.26.3.52.6,1,1.21c.67.82,1.34,1.64,2,2.48a44.89,44.89,0,0,1,3.69,5.33,36.06,36.06,0,0,1,2.5,6l1.36,4.11A27.79,27.79,0,0,0,243,169a19,19,0,0,0,5.32,6,27.87,27.87,0,0,0,10.21,4.72c.46.13.92.21,1.39.3a13.38,13.38,0,0,0,1.39.22l.36,0,.3-.12,1.37-.59,2.74-1.17.69-.29.14-.07h0l.24-.17,1.18-.84a54.45,54.45,0,0,0,14.4-15.83l.87-1.46.8-1.49a54,54,0,0,0,5.49-16.58c.46-2.88.64-5.88,1.13-8.93a33.45,33.45,0,0,1,1-4.59,23.35,23.35,0,0,1,.88-2.22c.31-.71.64-1.4,1-2.09a38.87,38.87,0,0,1,3.59-6,24.14,24.14,0,0,1,2.28-2.7l.32-.31.15-.15h0l.09-.07a1,1,0,0,1,.2-.14,1.79,1.79,0,0,1,.31-.16c0-.09-.27-.12-.43-.1a1.5,1.5,0,0,0-.29.06l-.22.09-.72.38c-1.92,1.11-3.68,2.84-5.89,4.21a10.68,10.68,0,0,1-1.82.92,6.89,6.89,0,0,1-2.11.43,4.19,4.19,0,0,1-2.33-.55,3.37,3.37,0,0,1-1-.87,1.51,1.51,0,0,1-.18-.26l-.09-.13,0,0a1.47,1.47,0,0,1-.06-.14c-.12-.31-.09-.76-.42-1a.59.59,0,0,0-.55-.14.38.38,0,0,0-.14.49l.23.8.53,1.76,1.51,5,.22.71.46.3.88.58-.68.78c-5.2,5.89-11.28,10.63-16.51,16.19a73.87,73.87,0,0,0-7.22,8.86l-.79,1.19c-.27.4-.52.75-.85,1.32l-.93,1.54-.46.77-.23.38c0,.06,0,0-.07,0l-.06-.1-.13-.2L257,152l-1.6-2.51-.82-1.28a.82.82,0,0,1-.17-.44l-.09-.36-.17-.73c-.47-1.92-.9-3.86-1.44-5.77a107.84,107.84,0,0,0-3.62-11.31c-.45-1.06-.88-2.13-1.36-3.17a27.42,27.42,0,0,0-4.29-6.88,11.26,11.26,0,0,0-6.79-3.84,17.59,17.59,0,0,0-5,0,1.85,1.85,0,0,1-1-.1c0-.08.41-.29.82-.4a14.11,14.11,0,0,1,6.43-.33,11.73,11.73,0,0,1,6,3.53,22.42,22.42,0,0,1,2.11,2.58c.6.92,1.19,1.85,1.72,2.8s1,1.93,1.46,2.92l1.27,3a119.16,119.16,0,0,1,3.92,12.28l1.06,4.23.26,1.06c.06.23,0,.22.07.27l.24.36,1.18,1.82,2.37,3.64.8,1.22.15.23,0,.06s0-.05.05-.07l.12-.21.48-.81,1.16-1.79c.39-.63.81-1.23,1.24-1.82s.83-1.21,1.29-1.79a82.74,82.74,0,0,1,5.66-6.72c5-5.45,10.75-10.1,15.41-15.53l.28,1.92-1.14-.73-1.76-5.51-1.12-3.5-.44-1.41a13.14,13.14,0,0,1-.39-1.36,3.07,3.07,0,0,1,.11-1.58,2.43,2.43,0,0,1,.28-.56,2.12,2.12,0,0,1,.67-.61,2.61,2.61,0,0,1,2-.25,3.47,3.47,0,0,1,1.52.79,3.66,3.66,0,0,1,1.13,1.72c.18.51.31,1.15.49,1.7a2.77,2.77,0,0,0,.14.38l.08.16,0,0a1,1,0,0,0,.11.15,1.2,1.2,0,0,0,.68.35,4.11,4.11,0,0,0,2.37-.47c2-1,3.76-2.8,6-4.33.28-.19.58-.38.89-.56.15-.08.3-.18.46-.26l.23-.12.12-.06.2-.09a10.77,10.77,0,0,1,3.28-1,7.41,7.41,0,0,1,2.59.14c.74.19,1.35.47,2.18.77l2,.75-1.22.58-.91.44-.23.11-.15.08-.3.18-1.21.72-1.21.71a8.34,8.34,0,0,0-1.09.7,3.42,3.42,0,0,0-.4.36l-.26.26-.33.33a7.27,7.27,0,0,0-.65.7,27.43,27.43,0,0,0-2.32,3.07,43.42,43.42,0,0,0-3.64,7l-.34.86-.26.89c-.17.62-.32,1.24-.44,1.88-.26,1.28-.45,2.58-.61,3.91-.33,2.65-.53,5.4-1.07,8.14a57.84,57.84,0,0,1-14.68,28.93,54.67,54.67,0,0,1-7.48,6.62l-1,.72-.51.36-.28.2a1.7,1.7,0,0,1-.46.24l-2.25.94-2.25.93-.56.24-.39.16c-.18.06-.34.19-.53.18l-1.53-.22a31.48,31.48,0,0,1-10.76-3.86,23.4,23.4,0,0,1-8.37-7.88,18.66,18.66,0,0,1-1.4-2.79c-.37-.93-.7-1.88-1-2.82-.61-1.88-1.14-3.75-1.77-5.54a25.09,25.09,0,0,0-2.38-5.08c-1-1.6-2.16-3.15-3.35-4.68-.67-.86-1.36-1.71-2-2.55l-1.06-1.25-.06-.06-.15-.15-.32-.29c-.21-.19-.41-.39-.61-.59a27.12,27.12,0,0,1-4.2-5.39,19.4,19.4,0,0,1-2.62-13.3,16.13,16.13,0,0,1,.88-3Z"/><path class="cls-3" d="M257.2,111.79c.59-.1,1.08-.46,1.61-.41a15.45,15.45,0,0,0,1.8,0l1.29-.07h.1l1.63,0,1.52-.05.38,0,2.57.1a.16.16,0,0,0,.07,0,3.23,3.23,0,0,1,1.24,0c.66,0,1.32,0,2,0h1.74l2-.06,1.07,0h1.7l.55,0h1.08a2,2,0,0,1,.24,0l1.76,0,1.87-.09c.46,0,.93,0,1.39-.06.68-.07,1.36,0,2,0,.45,0,.9,0,1.35,0,.22,0,.44,0,.66,0l.65,0,.63,0a2,2,0,0,1,.24,0c.45,0,.9,0,1.35,0,.83-.07,1.66,0,2.49,0l1.21-.07a1.81,1.81,0,0,0,.86-.1.25.25,0,0,1,.17,0c1.1,0,2.2.1,3.3.12a14.27,14.27,0,0,0,1.59-.16l1.21-.12,1.48-.17,1.38-.12,1.89-.19h0l1.83-.1,2.59-.2c.44,0,.88,0,1.32,0,.7,0,1.4-.14,2.1-.22l1.17-.15,1.34-.2c.3,0,.59-.11.89-.14a10.56,10.56,0,0,1,1.86-.18,3.27,3.27,0,0,0,.62-.07,3.42,3.42,0,0,1,.45,0l1.73,0c.31,0,.62-.07.93-.1a2,2,0,0,1,.91,0c.21.07.42.11.63.17a1.52,1.52,0,0,1,.28.09.3.3,0,0,1,.22.28c0,.2,0,.38-.16.44a3.68,3.68,0,0,1-.77.26c-.71.11-1.43.12-2.14.2s-1.25.08-1.87.14-1.15.19-1.72.29l-.17,0-1.55.15-1.8.22-.93.14a12.51,12.51,0,0,0-1.81.33,2.63,2.63,0,0,1-.49.06l-1.58.17a.08.08,0,0,0-.07,0c-.19.18-.4.11-.61.12-.71,0-1.44,0-2.15.14s-1.27,0-1.91.07c-.88.07-1.76.06-2.64.1a4.39,4.39,0,0,0-1.24.15,2.65,2.65,0,0,1-.63,0l-.82.09-1.87.2-1.7.17c-.51,0-1,.11-1.52.1a19.84,19.84,0,0,0-2.44,0c-.49,0-1,0-1.46,0l-2.26.11c-.37,0-.74,0-1.11,0l-2.29.09-1.88,0c-.61,0-1.23,0-1.84,0s-1.21-.05-1.81,0-1.35-.06-2,0-1.27,0-1.91,0-1.34,0-2,0h-.11c-.73,0-1.46-.07-2.19,0s-1.46-.08-2.19,0-1.48-.1-2.22-.1c-.07,0-.14,0-.21,0a2.11,2.11,0,0,1-1,0c-.57,0-1.13,0-1.7,0l-1.22,0H262c-.28,0-.56,0-.83-.06s-.7-.1-1-.1c-.63,0-1.25,0-1.88,0C257.88,112.56,257.53,112.38,257.2,111.79Z"/><path class="cls-3" d="M270.76,110.16c-.19-.57-.61-1-.63-1.54a15.13,15.13,0,0,0-.27-1.77c-.07-.41-.15-.84-.23-1.26l0-.1-.18-1.61c-.07-.49-.15-1-.23-1.5,0-.12,0-.25,0-.38,0-.43-.07-.82-.09-1.31a3.67,3.67,0,0,1,.26-1.6.18.18,0,0,0,0-.09,1.37,1.37,0,0,1,.58-.8,2.58,2.58,0,0,1,.87-.32,7.5,7.5,0,0,1,1.1-.14l1-.08H273l1.65-.1,2-.17,1.06-.1,1.69-.1.55-.06.75,0,.31,0a2,2,0,0,1,.24,0l1.75-.11,1.86-.17c.46,0,.92,0,1.37-.11.68-.08,1.36,0,2-.1.45,0,.9,0,1.35-.06.21,0,.43,0,.65-.06l.65,0,.62-.05.24,0c.45,0,.9,0,1.34-.07.83-.08,1.66-.06,2.48-.09l1.21-.09a1.77,1.77,0,0,0,.85-.11.32.32,0,0,1,.17,0c1.1,0,2.19.09,3.29.09.52,0,1.05-.1,1.57-.15l1.21-.12,1.47-.18,1.37-.11,1.89-.18h0l1.83-.09L313,95c.45,0,.85,0,1.34,0a2.6,2.6,0,0,1,1.49.33,2.52,2.52,0,0,1,1,1.25c.18.48.26.85.37,1.22s.26.88.38,1.31a6.74,6.74,0,0,1,.24.88,9.76,9.76,0,0,1,.36,1.85,2.72,2.72,0,0,0,.12.62c0,.15.06.29.08.45,0,.58.08,1.17.12,1.74,0,.32.09.62.14.93a2.05,2.05,0,0,1,0,.92c-.07.21-.1.42-.16.63a1.52,1.52,0,0,1-.09.28.3.3,0,0,1-.28.22.39.39,0,0,1-.44-.16,3.59,3.59,0,0,1-.26-.76c-.12-.69-.15-1.41-.26-2.11s-.13-1.23-.24-1.83a15.55,15.55,0,0,0-.43-1.66,1.15,1.15,0,0,1-.06-.17c-.1-.5-.2-1-.32-1.5s-.29-1.15-.45-1.72a5.3,5.3,0,0,0-.29-.76c-.23-.41-.36-.38-.86-.29-.12,0-.27,0-.44,0l-1.57.14a.08.08,0,0,0-.07,0c-.19.18-.4.1-.6.11-.71,0-1.43,0-2.14.1s-1.26,0-1.89.06c-.87.06-1.75,0-2.62.08a4.28,4.28,0,0,0-1.23.15,2.57,2.57,0,0,1-.62,0c-.28,0-.55.06-.82.09l-1.85.21-1.68.18a13,13,0,0,1-1.52.12,17.65,17.65,0,0,0-2.41.08c-.48,0-1,0-1.45.06l-2.23.15c-.37,0-.74,0-1.11,0l-2.26.16-1.86.12c-.61,0-1.22,0-1.83.07s-1.2,0-1.79.07-1.34,0-2,.09-1.26,0-1.89.05-1.33.1-2,.16h-.1c-.72,0-1.45,0-2.17.09s-1.45,0-2.17.1-1.29,0-1.46.33c0,0-.07,0-.06.1.07.23-.09.45-.1.75a13.94,13.94,0,0,0,.15,1.62l.12,1.2.26,2c0,.28,0,.55,0,.83s0,.69,0,1c.06.61.14,1.23.25,1.84C271.42,109.38,271.3,109.74,270.76,110.16Z"/><path class="cls-3" d="M278.26,96.8c-.12-.39-.49-.72-.46-1.08a6.31,6.31,0,0,0-.08-1.22l-.1-.87v-.07c0-.36,0-.73,0-1.1s-.05-.69-.07-1a1.11,1.11,0,0,1,0-.26l.07-1.75s0,0,0,0c-.15-.3,0-.63.08-1a2.45,2.45,0,0,1,1-1.64l.06,0a3.29,3.29,0,0,1,1.44-.38l1.35-.1.73-.06,1.15,0,.37,0h.73a1.24,1.24,0,0,1,.16,0l1.2,0,1.27-.1c.31,0,.62,0,.93-.06s.93,0,1.39,0,.61,0,.92,0c.15,0,.29,0,.44,0h.45l.42,0,.16,0a7.07,7.07,0,0,0,.92,0c.56,0,1.13,0,1.69,0,.28,0,.55,0,.82,0s.4.06.59-.08c0,0,.07,0,.11,0,.75.07,1.5.17,2.24.21a6.57,6.57,0,0,0,1.08-.1l.82-.07,1-.12.94-.07,1.29-.1h0l1.25,0,1.76-.06a8.92,8.92,0,0,1,1,.09,3.47,3.47,0,0,1,1.83.57,2.54,2.54,0,0,1,.78,1,5.09,5.09,0,0,1,.38,1.09c.05.22.11.41.14.61a4.86,4.86,0,0,1,.19,1.26,1.47,1.47,0,0,0,.07.41,1.54,1.54,0,0,1,0,.3c0,.39,0,.81,0,1.19,0,.21.06.41.09.62a1,1,0,0,1,0,.62c-.07.15-.11.3-.17.45a.82.82,0,0,1-.09.19c0,.07-.09.14-.28.17s-.37,0-.43-.07a1.64,1.64,0,0,1-.26-.51c-.11-.47-.11-1-.18-1.44s-.07-.85-.14-1.26a9.26,9.26,0,0,0-.3-1.15s0-.07,0-.11c0-.35-.1-.69-.16-1a2,2,0,0,0-.34-.9.93.93,0,0,0-.3-.22,1.24,1.24,0,0,0-.89-.06,1.29,1.29,0,0,1-.28,0c-.31,0-.67,0-1,.07h0c-.12.18-.27.09-.41.09a11.7,11.7,0,0,0-1.45,0c-.43.06-.87,0-1.3,0-.59,0-1.19,0-1.78,0a2.26,2.26,0,0,0-.85.1c-.13.06-.28,0-.42,0l-.56.06-1.26.14-1.15.12a5.88,5.88,0,0,1-1,.06,10.1,10.1,0,0,0-1.65,0c-.33,0-.65,0-1,0l-1.53.07c-.25,0-.5,0-.75,0l-1.55.07-1.27,0a8.55,8.55,0,0,0-1.24,0c-.41.06-.82,0-1.23,0s-.91,0-1.36,0-.86,0-1.29,0-.91,0-1.36.08h-.07a10.66,10.66,0,0,0-1.41,0c-.39.08-.6.08-.71.31a2.61,2.61,0,0,0-.29,1.08s0,.09,0,.13c.15.23,0,.47,0,.7s0,.76,0,1.15v.82c0,.47,0,.94,0,1.41a5.27,5.27,0,0,1,0,.56c0,.24-.07.47-.07.71,0,.42,0,.84.05,1.26S278.84,96.56,278.26,96.8Z"/><path class="cls-3" d="M283.1,85.3c-.12-.31-.49-.56-.46-.85a4.35,4.35,0,0,0-.07-1c0-.22-.07-.46-.1-.68v-.06c0-.29,0-.58,0-.86s0-.54-.08-.81c0-.07,0-.14,0-.21l.09-1.36a0,0,0,0,0,0,0c-.15-.22,0-.44,0-.66s0-.7,0-1v-.94a3.12,3.12,0,0,1,.25-1.4,1.86,1.86,0,0,1,.65-.74,3.1,3.1,0,0,1,1.17-.41l.32-.07.4,0,.17,0s.08-.05.12-.05l.94-.11,1-.17c.24,0,.49,0,.74-.09s.73,0,1.09-.08a6,6,0,0,1,.73,0l.35,0,.36,0,.33,0,.13,0c.24,0,.48,0,.72,0a10.14,10.14,0,0,1,1.35,0l.65,0c.15,0,.31.07.46-.07s.06,0,.09,0c.59.09,1.18.21,1.77.29a6.06,6.06,0,0,0,.85,0l.66,0,.8-.06c.25,0,.49,0,.74,0h.59l.9,0h0l.63,0,.17,1.13.15.91.11.68c0,.23,0,.47,0,.7s.14.74.22,1.1a6,6,0,0,0,.15.61c.06.23.13.46.2.7s.1.3.13.46a3.24,3.24,0,0,1,.16,1,.71.71,0,0,0,.07.32,2,2,0,0,1,0,.24c0,.31,0,.62,0,.93a2.64,2.64,0,0,0,.08.49.61.61,0,0,1-.06.49c-.07.12-.11.24-.17.36a1.4,1.4,0,0,1-.1.16c0,.06-.09.11-.28.15s-.37,0-.43,0a1.09,1.09,0,0,1-.24-.39,10.61,10.61,0,0,1-.17-1.13c-.05-.32-.05-.66-.11-1a5.62,5.62,0,0,0-.28-.88l0-.09c0-.27-.09-.54-.14-.81s-.14-.62-.22-.94c0-.16-.1-.32-.13-.48a3.56,3.56,0,0,0-.33-.93.57.57,0,0,1-.06-.25l-.19-.83a0,0,0,0,0,0,0c-.19-.08-.12-.2-.13-.31-.07-.51,0-.43-.05-.48h0c-.06,0-.09-.08-.18-.08l-.27,0-.34,0a5.4,5.4,0,0,0-.69-.08,1.35,1.35,0,0,0-.66,0c-.1,0-.21,0-.32,0a3.25,3.25,0,0,0-.44,0l-1,.08-.89.08a5.35,5.35,0,0,1-.8,0,4.92,4.92,0,0,0-1.27,0c-.26,0-.51,0-.76,0s-.79.06-1.18.08c-.2,0-.39,0-.59,0l-1.19.11-1,.09a5.11,5.11,0,0,0-1,.06c-.31.08-.64,0-.94.07s-.71,0-1.06.09-.66,0-.87.09-.27.15-.3.25a0,0,0,0,0,0,0,1.48,1.48,0,0,0-.12.83c0,.38-.08.77,0,1.16s-.1.78-.09,1.17c0,0,0,.08,0,.11.15.19,0,.37,0,.55s0,.6,0,.9v.65c0,.36,0,.73,0,1.1a3.27,3.27,0,0,1,0,.44,3.47,3.47,0,0,0-.08.55,8.37,8.37,0,0,0,.05,1C283.85,84.93,283.68,85.11,283.1,85.3Z"/><path class="cls-3" d="M194.25,198.43c.36-.05.71-.35,1-.25a5.12,5.12,0,0,0,1,.15c.25,0,.5,0,.75.06h.06l.93.18c.29,0,.59.07.88.1a1.66,1.66,0,0,1,.21.06l1.45.35h0c.27-.11.48.07.71.12.38.08.76.11,1.14.16h0l.95.17,1.14.13.62.06,1,.15.32,0,.44.06.18,0s.1,0,.14,0l1,.14,1.08.08c.27,0,.53.07.8.07s.78.13,1.18.16a6.8,6.8,0,0,1,.77.11h.38l.38,0,.36,0h.15a6.48,6.48,0,0,0,.77.09,13.81,13.81,0,0,1,1.44.18l.7,0c.17,0,.33.11.51,0,0,0,.06,0,.09,0,.63.14,1.26.31,1.89.42a4.82,4.82,0,0,0,.93,0h.7l.87,0h.8l1.11,0h0l1.06.06,1.51,0c.25,0,.51.1.76.11.41,0,.82,0,1.23,0l.68,0,.78-.09a4.88,4.88,0,0,1,.52-.06,3.62,3.62,0,0,1,1.09,0c.12,0,.24,0,.36,0a1.11,1.11,0,0,1,.26,0c.33,0,.67.09,1,.11.18,0,.36,0,.54,0a.73.73,0,0,1,.52.12,3.35,3.35,0,0,0,.36.21l.17.12c.05,0,.1.11.12.3s0,.37-.1.42a1.22,1.22,0,0,1-.46.19,10.43,10.43,0,0,1-1.25,0c-.37,0-.74,0-1.1,0a5.87,5.87,0,0,0-1,.15l-.1,0-.91,0-1.06.06-.54.06a4.52,4.52,0,0,0-1.08.18.88.88,0,0,1-.28,0l-.94,0s0,0,0,0-.24.07-.36.07a10.63,10.63,0,0,0-1.26-.06c-.37,0-.74-.09-1.11-.09-.52,0-1-.1-1.54-.14a1.69,1.69,0,0,0-.74,0c-.12,0-.24,0-.36,0a4,4,0,0,0-.49,0l-1.1,0h-1a3.77,3.77,0,0,1-.89,0,6.82,6.82,0,0,0-1.42-.18,8.2,8.2,0,0,1-.85-.1l-1.32-.11c-.21,0-.42-.1-.64-.12l-1.33-.13-1.1-.12a7.53,7.53,0,0,0-1.06-.16c-.36,0-.69-.17-1-.18s-.77-.18-1.17-.19a8.61,8.61,0,0,1-1.1-.23c-.38-.06-.77-.09-1.16-.14h-.07c-.42-.08-.83-.21-1.25-.25s-.83-.21-1.26-.24a12.9,12.9,0,0,1-1.26-.32s-.08,0-.12,0c-.23.11-.4,0-.59-.1s-.66-.13-1-.2L198,200l-1.2-.21a3.5,3.5,0,0,1-.46-.14c-.2-.07-.38-.16-.58-.21-.36-.07-.72-.14-1.08-.18S194.32,199,194.25,198.43Z"/><path class="cls-3" d="M238.11,160.35a32.88,32.88,0,0,1,.48,3.73c0,1.4.07,2.8.09,4.2,0,1,.07,2,.1,3v.24l0,3.8,0,3.56,0,.89-.22,6a.86.86,0,0,0,0,.16,17.58,17.58,0,0,1-.09,2.9l-.12,4.61v.16l-.17,3.88-.18,4.6-.1,2.51-.25,3.95-.06,1.29-.12,1.78,0,.72c0,.19,0,.38,0,.57L237,217l-.31,4.36c-.08,1.07-.2,2.15-.26,3.22-.1,1.59-.36,3.17-.5,4.75-.1,1.05-.23,2.09-.36,3.14l-.16,1.53-.18,1.52L235.1,237l0,.56-.41,3.13q-.37,2.9-.87,5.77l-.42,2.8a10.42,10.42,0,0,0-.24,2,1.37,1.37,0,0,1-.06.39c-.55,2.51-1.06,5-1.64,7.52-.27,1.21-.44,2.45-.66,3.67a9.26,9.26,0,0,0-.26,2.58,3.75,3.75,0,0,0,1.49,2.37c.76.69,1.63,1.34,2.44,2,.56.46,1.18.85,1.76,1.28s1.18.85,1.81,1.23l.06,0,1.76,1.17,1.81,1.08c.85.53,1.74,1,2.62,1.45s1.78.91,2.68,1.34,1.79.95,2.72,1.34c1.48.68,3,1.22,4.54,1.8l2.58.85c1,.33,2,.58,3,.87.67.19,1.35.33,2,.52,1.38.4,2.81.62,4.18,1a9.29,9.29,0,0,0,1.41.3c.34.06.68.12,1,.2,1.3.33,2.6.59,3.91.84.71.14,1.43.19,2.14.28a13.71,13.71,0,0,1,2,.38c.46.13.92.23,1.39.34l.61.17c.21.07.4.15.41.35s-.17.35-.51.37a16.29,16.29,0,0,1-1.85,0c-.84,0-1.67-.17-2.51-.28s-1.66-.24-2.48-.38c-1.45-.22-2.87-.55-4.3-.84l-4-.78-.4-.08c-1.17-.33-2.36-.62-3.52-1-1.35-.4-2.7-.79-4-1.25-.69-.23-1.41-.41-2.09-.69-1.34-.51-2.71-.95-4.06-1.45-.35-.12-.7-.29-1.05-.44-1.15-.48-2.27-1-3.41-1.56l-.15-.06a3.89,3.89,0,0,1-1.31-.6c-1.5-.78-2.91-1.72-4.39-2.54-1.28-.8-2.51-1.66-3.71-2.57-.84-.61-1.67-1.24-2.45-1.93a27.09,27.09,0,0,1-2.35-2.14,5.57,5.57,0,0,1-1.49-3.07,5.17,5.17,0,0,1,.13-1.63l.33-1.95.74-4.28c.23-1.29.4-2.6.61-3.89s.35-2.33.57-3.5c.34-1.84.67-3.7.92-5.56.13-1.12.32-2.23.48-3.35.24-1.73.44-3.46.64-5.19l.36-2.56c.23-1.76.38-3.52.56-5.29l.42-4.33c.14-1.42.34-2.83.42-4.25s.3-2.78.37-4.18c.07-1.56.33-3.1.39-4.66s.24-2.95.34-4.42.16-3.12.24-4.67v-.24c.11-1.69.26-3.38.29-5.08s.23-3.38.25-5.07.2-3.44.25-5.16a2.63,2.63,0,0,0,0-.48,11.32,11.32,0,0,1,0-2.4c.05-1.31.06-2.63.09-4l.05-2.82v-4.84c0-.65,0-1.29.05-1.94,0-.81.08-1.61.08-2.42,0-1.45,0-2.9-.08-4.35A3.94,3.94,0,0,1,238.11,160.35Z"/><path class="cls-3" d="M192.81,197.39c-.28-.29-.7-.4-.84-.68a2.91,2.91,0,0,0-.66-.83,4.46,4.46,0,0,0-.57-.49l-.05,0a4.29,4.29,0,0,0-1.49-1,1.22,1.22,0,0,1-.19-.12,7.33,7.33,0,0,0-1.34-.68h0c-.27,0-.46-.13-.7-.19a5.67,5.67,0,0,0-1.15-.15h0a5.13,5.13,0,0,0-1,0,6,6,0,0,0-1.12.2c-.19.06-.38.14-.58.19s-.61.24-.86.37a1,1,0,0,0-.16.12l-.05.06v0a.05.05,0,0,0,0,0s0,0,0,0a1.09,1.09,0,0,0,.19.51,7.2,7.2,0,0,0,.65.86,8,8,0,0,0,.54.62c.3.27.51.61.81.84l.57.45a2.71,2.71,0,0,0,.3.13,2.14,2.14,0,0,0,.28.12.9.9,0,0,0,.27.07h.1a1,1,0,0,0,.55,0,3.09,3.09,0,0,0,1.07-.47c.19-.13.37-.31.59-.47s.35-.18.41-.4c0,0,.06-.06.09-.08.64-.36,1.31-.67,1.94-1a7.39,7.39,0,0,0,.85-.62l.66-.45c.28-.18.54-.38.82-.55l.79-.46,1.12-.6h0l1.15-.45c.27-.1.54-.21.82-.3l.42-.14.66-.19.34-.07.33.21a7,7,0,0,1,.58.41,2.55,2.55,0,0,1,1.15,1.63,2.29,2.29,0,0,1-.17,1.24,3.33,3.33,0,0,1-.62,1,4.06,4.06,0,0,1-.49.52,3.49,3.49,0,0,1-1.17.75,1.87,1.87,0,0,0-.39.22,1.6,1.6,0,0,1-.3.13c-.4.13-.8.21-1.21.3-.22,0-.44.12-.66.17a1,1,0,0,1-.69-.05c-.17-.08-.33-.13-.48-.22a.86.86,0,0,1-.2-.13c-.07-.06-.12-.13-.09-.33s.1-.36.18-.39a2.28,2.28,0,0,1,.45-.17,9.73,9.73,0,0,0,1.25-.23,10.76,10.76,0,0,0,1.09-.37,3.75,3.75,0,0,0,.85-.63.5.5,0,0,1,.07-.08,4.27,4.27,0,0,0,.69-.57,1.63,1.63,0,0,0,.41-.74.78.78,0,0,0,0-.28.79.79,0,0,0-.56-.4.3.3,0,0,1-.13-.07c-.06-.05-.17,0-.32.08s0,0,0,0c-.06.2-.2.15-.32.19a5.55,5.55,0,0,0-1.24.44c-.34.19-.75.25-1.1.43s-1,.43-1.5.69a1.84,1.84,0,0,0-.64.44c-.08.11-.23.12-.35.18s-.28.2-.42.31c-.32.23-.62.47-.93.71l-.82.67a6.84,6.84,0,0,1-.75.58c-.43.25-.84.57-1.36.94a3.3,3.3,0,0,1-1.13.48,3.63,3.63,0,0,1-2,0,4.8,4.8,0,0,1-.83-.38,7.35,7.35,0,0,1-1.41-1,9.12,9.12,0,0,1-.92-.95c-.28-.33-.47-.71-.75-1a5.17,5.17,0,0,1-.66-1.2,2,2,0,0,1,.1-1.9l.1-.15a1.83,1.83,0,0,1,.75-.62c.24-.11.45-.16.66-.25a9.51,9.51,0,0,1,1.36-.47l.07,0,.77-.09c.26,0,.52,0,.77-.05a9.78,9.78,0,0,1,1.53.14,6.21,6.21,0,0,1,1.47.43s.08.07.14.06c.27-.07.46.12.66.24a11.47,11.47,0,0,1,1.05.53,7.54,7.54,0,0,1,.7.45,7.89,7.89,0,0,1,1.13.89,5.54,5.54,0,0,1,.37.45c.15.18.24.42.39.6.27.34.49.71.73,1.07S193.26,197,192.81,197.39Z"/><path class="cls-3" d="M135.84,354.42c.15,0,.51-.09.51,0s.12.12.2.18l.19.1h0a1.15,1.15,0,0,0,.14.19.85.85,0,0,0,.19.14s0,0,0,.06l.18.36h0c.16-.05.09.09.13.15a1.47,1.47,0,0,0,.22.21h0a1.56,1.56,0,0,0,.16.2c.08.08.16.14.24.21l.13.11.18.2.07,0,.08.1s0,0,0,0h.05a1.81,1.81,0,0,0,.18.21,2.23,2.23,0,0,0,.24.19c.05.05.09.12.16.15s.11.19.2.26a1.13,1.13,0,0,1,.12.18s.06,0,.09.07l.06.08.07.07,0,0a.52.52,0,0,0,.13.17c.11.08.15.23.22.34a1.66,1.66,0,0,1,.13.14s0,.12.14.06,0,0,0,0c.05.2.07.41.13.59s.14.1.21.15l.16.12a2.14,2.14,0,0,1,.22.13,1.29,1.29,0,0,1,.17.15l.25.2h0l.17.25c.09.11.19.21.27.32s0,.17.07.23a2,2,0,0,0,.25.25l.16.12.2.13a.48.48,0,0,1,.14.09c.05.09.22.1.19.25s.05.06.07.09a.18.18,0,0,1,0,.07,3.23,3.23,0,0,0,.06.33.6.6,0,0,0,.09.15c0,.06.06.11,0,.23l-.15.2-.08.1s-.08.08-.26.16a1.47,1.47,0,0,1-.39.16c-.09,0-.18,0-.21,0s-.07-.18-.14-.28-.06-.18-.12-.26-.16-.09-.26-.14h0a1.39,1.39,0,0,0-.15-.19,1,1,0,0,0-.22-.18l-.13-.08a.44.44,0,0,0-.32-.11s0,0-.06,0l-.19-.16h0c-.15.09-.1,0-.12,0s-.08-.22-.19-.28-.08-.19-.15-.26-.13-.26-.21-.37-.06-.13-.18-.11,0-.06,0-.09a.41.41,0,0,0-.11-.07l-.27-.16-.24-.16c-.06-.05-.15-.08-.17-.16a.53.53,0,0,0-.21-.34c-.06-.05-.08-.14-.13-.2s-.17-.16-.25-.25,0-.13-.07-.18a3.07,3.07,0,0,0-.25-.26c-.07-.08-.14-.15-.2-.23s-.07-.2-.17-.24-.07-.2-.16-.25-.08-.22-.18-.27-.09-.19-.15-.28-.16-.15-.24-.23h0a.84.84,0,0,0-.2-.29c-.1-.07-.09-.23-.2-.3s-.07-.25-.15-.34,0,0,0,0-.08-.08-.11-.13a1.88,1.88,0,0,0-.16-.23,1.77,1.77,0,0,0-.12-.17,3,3,0,0,1-.23-.26.33.33,0,0,1,0-.14c0-.07,0-.15,0-.19a1.09,1.09,0,0,0-.22-.27C135.23,354.86,135.34,354.72,135.84,354.42Z"/><path class="cls-3" d="M143.46,362.87a18.1,18.1,0,0,1,2.38-1.5,11.59,11.59,0,0,0,1.42-.55l1.36-.68c.65-.32,1.27-.7,1.9-1.05l.15-.08c.81-.43,1.64-.83,2.42-1.31s1.46-.93,2.18-1.41l.56-.33,3.79-2.25.1-.07a6.36,6.36,0,0,1,1.81-1.16c1-.6,1.92-1.25,2.9-1.85l.1-.06c.83-.5,1.7-.95,2.54-1.44,1-.54,2-1.11,3.08-1.62.57-.29,1.12-.57,1.67-.82l2.62-1.24.84-.45,1.16-.57.48-.25c.12-.06.22-.17.34-.23.89-.46,1.79-.92,2.67-1.41s1.84-1.08,2.75-1.62c.68-.41,1.38-.79,2-1.23,1-.65,2-1.14,3-1.79.64-.43,1.31-.8,2-1.21.31-.2.6-.45.9-.66l.92-.63.84-.63c.11-.08.2-.18.32-.26.61-.44,1.22-.89,1.79-1.39,1.06-.91,2.16-1.76,3.19-2.71.5-.47.95-1,1.43-1.46a3.19,3.19,0,0,0,.93-1.13c0-.1.12-.15.19-.22,1.37-1.27,2.72-2.58,4-4a27.32,27.32,0,0,0,1.67-2.18l1.26-1.66c.49-.7,1-1.39,1.49-2.08l1.42-1.91c.65-.87,1.26-1.77,1.89-2.65l0-.05c.63-.84,1.25-1.68,1.85-2.53.84-1.21,1.65-2.45,2.44-3.69.42-.61.89-1.2,1.28-1.84.63-1,1.15-2.09,1.7-3.15.3-.59.55-1.2.82-1.81s.58-1.4.84-2.11c.17-.48.34-1,.52-1.42a27.84,27.84,0,0,1,1.06-2.94,6.75,6.75,0,0,0,.29-1c.07-.24.13-.48.22-.71.29-.92.65-1.82.89-2.76.12-.5.18-1,.28-1.53a5.1,5.1,0,0,1,.42-1.45c.18-.31.3-.65.46-1l.23-.43a.49.49,0,0,1,.49-.28c.3,0,.55.15.58.41a6.56,6.56,0,0,1,.11,1.4,29.42,29.42,0,0,1-.66,3.71c-.28,1.05-.57,2.11-.91,3.14s-.46,2-.77,2.93c0,.1,0,.21-.07.3l-.49,1.28L223,298.9c-.39,1-.81,1.94-1.25,2.9-.22.5-.41,1-.67,1.49-.5.95-.92,1.94-1.34,2.94a7.68,7.68,0,0,1-.41.74c-.44.82-1,1.6-1.42,2.4,0,0,0,.07,0,.11,0,.44-.28.67-.49,1-.72,1-1.5,2-2.17,3.06s-1.38,1.74-2,2.63c-.91,1.23-1.94,2.37-2.89,3.55a9.56,9.56,0,0,0-1.26,1.76,4.91,4.91,0,0,1-.71.81c-.3.38-.57.77-.86,1.15l-1.95,2.6c-.6.78-1.2,1.57-1.84,2.33a24,24,0,0,1-1.77,2c-1.05,1-2.1,2-3.11,3-.62.6-1.31,1.13-2,1.67-1,.85-2.05,1.7-3.12,2.48-.53.38-1.11.68-1.65,1.05-1.11.75-2.22,1.5-3.35,2.21-.92.58-1.84,1.15-2.79,1.69s-1.9,1-2.79,1.55-1.89.91-2.79,1.45-2.12,1-3.13,1.56-2,.91-3,1.37-2.12,1-3.12,1.49l-.16.08a29.94,29.94,0,0,0-3.31,1.64c-1.06.64-2.21,1.13-3.23,1.83s-2.23,1.22-3.3,1.91c-.1.07-.23.09-.3.18a4.31,4.31,0,0,1-1.49,1c-.84.5-1.67,1.05-2.5,1.56l-1.82,1.09c-1,.61-2.09,1.22-3.17,1.79-.44.22-.9.39-1.35.57s-1.16.4-1.72.64c-1,.44-2,.82-3,1.24A2,2,0,0,1,143.46,362.87Z"/><path class="cls-3" d="M141.7,366.78c-.09-.08-.42-.25-.38-.26s0-.06,0-.1l-.07-.08h0s0,0,0-.06a.2.2,0,0,0,0-.08h0l.12-.06h0c-.13-.07,0,0,0-.05s0-.05,0-.08h0s0,0,0-.06a.37.37,0,0,0,0-.09.08.08,0,0,1,0-.05.14.14,0,0,0,0-.06s0,0,0,0v0a0,0,0,0,0,0,0l0,0s0,0,0-.06,0-.06,0-.08,0,0,0-.06,0,0,0-.07,0,0,0-.05l0,0v0h0a0,0,0,0,0,0,0s.06-.05.08-.08,0,0,0-.05.08,0-.05,0,0,0,0,0l.32-.08s0,0-.05-.07l0-.06-.07-.07a.13.13,0,0,1,0-.05l0-.08h0l0-.07s0-.07,0-.1.09,0,.1,0a.12.12,0,0,0,0-.08.1.1,0,0,0,0,0l-.08-.06-.05,0s-.12-.05,0-.08,0,0,0,0,0,0,0,0l.14-.06s0,0,0,0,0,0,.15,0l.22,0H142l.31,0h.41a.59.59,0,0,1,.18,0s0,.07,0,.1,0,.06,0,.09.08.06.12.09h0s0,.05,0,.07l.06.09.05.05s.07.07.18.11,0,0,0,0l0,.09h0c.17,0,.08,0,.07,0s-.08.06,0,.11-.07,0-.07.09-.08.08-.09.12,0,0,.06.07,0,0,0,0l0,0,.08.11a.33.33,0,0,1,.06.1s0,.06,0,.08-.11.06-.09.11,0,0,0,.07,0,.08,0,.11-.07,0-.08.05,0,.07,0,.11a.18.18,0,0,1,0,.1s-.1,0-.06.08-.09,0-.06.08-.1,0-.07.08-.08.05-.09.07,0,.07,0,.11h0s-.09,0-.08.09-.09,0-.07.09-.11,0-.12.07h0c.14.07,0,0,0,.06s0,0,0,.07,0,0,0,.05,0,.08,0,.11,0,0-.06,0h-.09a.15.15,0,0,0,0,.11S142.23,367,141.7,366.78Z"/><path class="cls-3" d="M126.47,362.84a5.62,5.62,0,0,1,1.82,1.23,23.44,23.44,0,0,1,1.34,2.06c.28.5.53,1,.77,1.55l0,.13c.24.7.44,1.4.63,2.09s.35,1.31.49,2a4.33,4.33,0,0,1,.08.5c.17,1.11.32,2.21.44,3.32,0,0,0,.06,0,.09a5.48,5.48,0,0,1,.21,1.61l.31,2.56,0,.09.16,2.17c.07.85.13,1.71.19,2.57l.08,1.27c0,.07,0,.2,0,.21h.38l.71,0h1.39l.31-.05,2.28,0,2.42-.1c.59,0,1.19,0,1.78-.06.81-.07,2.08,0,1.88,0a.47.47,0,0,1,.12,0,.12.12,0,0,0,0-.1.32.32,0,0,0-.1-.1l-.06-.07a3.07,3.07,0,0,0-.25-.26,4.51,4.51,0,0,0-.54-.44c-.07-.06-.16-.09-.23-.15a6.23,6.23,0,0,0-1.37-.75q-.68-.27-1.41-.51l-.74-.23-.38-.11-.68-.17-1-.24c0-.24,0-.56,0-.83a2.68,2.68,0,0,1,.11-.85l.22-.73a1.72,1.72,0,0,0,.06-.56.41.41,0,0,1,.05-.21c.46-1.35.94-2.68,1.36-4,.21-.66.32-1.34.47-2l.36-1.52c.13-.63.27-1.26.41-1.88l.42-1.74a2.11,2.11,0,0,0,.11-.54c0-.08-.09-.09-.14-.07h-.24c-.22,0-.43,0-.65,0a9.4,9.4,0,0,1-1.3-.14,9.29,9.29,0,0,1-3.47-1.32,8.29,8.29,0,0,1-1.43-1.28,7.8,7.8,0,0,1-1.65-2.58,8.77,8.77,0,0,1-.45-1.67c0-.16-.05-.33-.06-.5l0-.25s0,0,0,0a.14.14,0,0,0,0-.07h0l-.06.08s0,0,0-.06,0,0,0,0,0,0,0,0h0l-.1.07-.23.16-.45.33-.91.66c-.33.25-.63.52-.94.78a3.33,3.33,0,0,1-1,.62c-.26.1-.5.22-.76.33l-.34.13a.31.31,0,0,1-.38-.09.36.36,0,0,1-.06-.48,5.15,5.15,0,0,1,.68-.79c.69-.62,1.44-1.16,2.16-1.75l.95-.75.5-.38.63-.51c.76-.63,1.58-1.42,2.51-2.24l.29-.27.09-.08,0,0h0v0s0,.06,0,.07l.17,0s0,0,.12,0l.22-.13c-.46.95-.78,1.67-1.11,2.42l-.22.6a1.77,1.77,0,0,0-.14.55,4.46,4.46,0,0,0,0,.86,5.22,5.22,0,0,0,.16,1,7,7,0,0,0,.38,1,4,4,0,0,0,1.28,1.66c.14.12.26.26.4.38a6.79,6.79,0,0,0,1.54,1l.08,0c.27-.06.45.11.67.2a6.51,6.51,0,0,0,2.42.5h.56c.27,0,.67,0,1,0a1.72,1.72,0,0,1,.89.36,1.3,1.3,0,0,1,.45.81,3.38,3.38,0,0,1-.22,1.4l-.25.82-.48,1.64a7.67,7.67,0,0,0-.34,1.58,4.35,4.35,0,0,1-.23.78l-.24,1-.52,2.37c-.17.72-.33,1.44-.49,2.16s-.28,1.29-.49,1.92l-.13.4c0,.08,0,0,0,0s0,0,0,.07l.05,0,.54.12a15.44,15.44,0,0,1,1.89.62,9.87,9.87,0,0,1,2.82,1.58,5.37,5.37,0,0,1,.59.58l.13.16.21.26c.14.17.25.35.38.52a3.63,3.63,0,0,1,.53,1.09c0,.18.06.34.08.5l.07.56v.15l-.11,0-.23.08-.47.15a4,4,0,0,1-1.23.11l-2.75.06c-.8,0-1.6-.05-2.39,0s-1.56,0-2.34,0-1.74-.05-2.61,0c-.41,0-.83,0-1.24,0h-1.92c-.27.09-.18-.19-.2-.36V387l0-1.05-.06-1.29v-.13c0-.93,0-1.87-.13-2.8s-.08-1.87-.22-2.8-.12-1.89-.25-2.84a.77.77,0,0,0,0-.26,3.66,3.66,0,0,1-.2-1.31c-.09-.72-.22-1.44-.35-2.15-.09-.51-.19-1-.3-1.52a21.93,21.93,0,0,0-.75-2.51l-.33-1a7.26,7.26,0,0,0-.49-1.19,8.32,8.32,0,0,0-1.34-1.86A1.81,1.81,0,0,1,126.47,362.84Z"/></svg>