<?xml version="1.0" standalone="no"?>
<!DOCTYPE svg PUBLIC "-//W3C//DTD SVG 20010904//EN"
 "http://www.w3.org/TR/2001/REC-SVG-20010904/DTD/svg10.dtd">
<svg version="1.0" xmlns="http://www.w3.org/2000/svg"
 width="260.000000pt" height="260.000000pt" viewBox="0 0 260.000000 260.000000"
 preserveAspectRatio="xMidYMid meet">
<metadata>
Created by potrace 1.11, written by Peter Selinger 2001-2013
</metadata>
<g transform="translate(0.000000,260.000000) scale(0.100000,-0.100000)"
fill="#000000" stroke="none">
<path d="M1117 2305 c-207 -39 -389 -136 -538 -284 -129 -129 -227 -302 -271
-477 -32 -128 -32 -360 0 -488 44 -175 142 -348 271 -477 129 -129 302 -227
477 -271 128 -32 360 -32 488 0 175 44 348 142 477 271 129 129 227 302 271
477 32 128 32 360 0 488 -26 103 -90 244 -153 337 -55 82 -176 203 -258 258
-92 62 -234 127 -331 151 -113 28 -324 35 -433 15z m450 -790 c5 -16 -9 -157
-28 -270 -5 -33 -11 -92 -12 -131 -2 -76 -12 -96 -60 -120 -68 -35 -136 17
-160 123 -18 78 -32 203 -22 203 24 0 44 -26 56 -72 18 -76 37 -118 54 -118 8
0 15 4 15 10 0 5 6 7 13 5 21 -8 40 12 43 47 12 179 24 290 33 306 17 33 58
42 68 17z m263 -190 c0 -36 -32 -69 -61 -62 -31 8 -53 42 -41 64 13 22 73 42
90 30 6 -5 12 -20 12 -32z m-972 8 c16 -31 -15 -83 -49 -83 -17 0 -59 43 -59
61 0 36 91 54 108 22z m658 -485 c9 -9 -48 -45 -93 -58 -23 -7 -57 -10 -77 -6
-40 8 -93 47 -83 62 6 10 243 11 253 2z"/>
</g>
</svg>
