<?xml version="1.0" encoding="UTF-8"?>
<svg width="100px" height="100px" viewBox="0 0 100 100" version="1.1" xmlns="http://www.w3.org/2000/svg" xmlns:xlink="http://www.w3.org/1999/xlink">
    <!-- Generator: Sketch 52.6 (67491) - http://www.bohemiancoding.com/sketch -->
    <title>Sig bifolds</title>
    <desc>Created with Sketch.</desc>
    <g id="Sig-bifolds" stroke="none" stroke-width="1" fill="none" fill-rule="evenodd">
        <g id="Group-7" transform="translate(39.000000, 13.000000)" fill="#FFFFFF">
            <path d="M22.1430638,0.736949372 L0,19.7433878 L0.00415988425,37 L1.04995478,34.6991755 L1.0457949,20.2472555 L21.9550371,2.30082449 L21.9550371,16.7587429 L9.01114126,27.6724489 C9.39301863,27.7889898 9.67755471,28.0332114 9.86558148,28.3408449 L23,17.2626106 L23,0 L22.1430638,0.736949372 Z" id="Fill-1"></path>
            <path d="M0.00831946755,20 L0,21.2045494 L0,37.4228847 L12.9925125,47.2600379 C13.1381032,46.9265897 13.2886855,46.5957263 13.4675541,46.2777874 L1.04409318,36.8766155 L1.04575707,22.278132 L21.9542429,38.2595209 L21.9492512,52.854558 L22.9958403,55 L23,37.7123901 L0.00831946755,20 Z" id="Fill-3"></path>
            <path d="M22.1414309,38 L0,56.8686076 L0.00332778702,74 L23,54.3436053 L22.1414309,38 Z M21.953411,53.8442197 L1.04908486,71.7166084 L1.04575707,57.3688439 L14.3460899,46.0344078 C14.5299501,45.7842896 14.7620632,45.5843653 15.0241265,45.4567539 L21.953411,39.5517535 L21.953411,53.8442197 Z" id="Fill-5"></path>
        </g>
    </g>
</svg>