<?xml version="1.0" encoding="utf-8"?>
<!-- Generator: Adobe Illustrator 22.1.0, SVG Export Plug-In . SVG Version: 6.00 Build 0)  -->
<svg version="1.1" id="forestry_logo" xmlns="http://www.w3.org/2000/svg" xmlns:xlink="http://www.w3.org/1999/xlink" x="0px"
	 y="0px" viewBox="0 0 484.1 101.9" style="enable-background:new 0 0 484.1 101.9;" xml:space="preserve">
<title>Forestry Logotype</title>
<g>
	<path d="M38.6,44.2l21,33.8H43.9L23.6,45.4h-7.4v32.7h-14V2.4h27.6c15.1,0,23,9,23,21.5C52.8,33.9,47.8,41.4,38.6,44.2z M38.7,23.9
		c0-6.2-3.8-8.5-8.9-8.5H16.2v17.1h13.6C34.9,32.4,38.7,30.1,38.7,23.9z"/>
	<path d="M90.9,22.7c17.5,0,27.7,12.3,27.7,28.1s-10.2,28.1-27.7,28.1S63.2,66.6,63.2,50.8C63.3,35,73.4,22.7,90.9,22.7z M90.9,67.5
		c8.7,0,13.6-7.7,13.6-16.7s-5-16.7-13.6-16.7c-8.7,0-13.6,7.7-13.6,16.7S82.3,67.5,90.9,67.5z"/>
	<path d="M157.8,78.9c-6.7,0-11.7-3.7-13.2-6.5V78h-13.4V1.5h13.4v27c2.4-3,7.7-5.8,13.2-5.8c16.4,0,24.9,11.4,24.9,28.1
		C182.6,67.6,174.2,78.9,157.8,78.9z M155.9,34.2c-7,0-12.5,5.8-12.5,16.7c0,10.8,5.5,16.7,12.5,16.7s12.7-5.8,12.7-16.7
		C168.6,40,163,34.2,155.9,34.2z"/>
	<path d="M223.8,78.1V2.4h23.7c17.8,0,35.3,11.4,35.3,37.8c0,26.5-17.4,37.8-35.3,37.8L223.8,78.1L223.8,78.1z M243.1,65.1
		c12.1,0,25.4-4.8,25.4-24.9s-13.3-24.9-25.4-24.9h-5.2V65L243.1,65.1L243.1,65.1z"/>
	<path d="M294.7,37.9c1.7-9,9.6-15.1,20.8-15.1c13,0,22.9,5.4,22.9,22.8v32.6h-11l-1.4-6.9c-3.8,4.6-9,7.8-16.8,7.8
		c-9.3,0-16.5-5.7-16.5-16.5s9.5-17.8,23.3-17.8h9.1v-2.4c0-6.1-4.5-8-9.5-8c-3.8,0-7.7,1.2-9.4,6.3L294.7,37.9z M312.3,67.5
		c6.2,0,12.7-4.2,12.7-11.2v-1.1h-9c-5.7,0-9.3,2.2-9.3,7C306.7,64.8,308.5,67.5,312.3,67.5z"/>
	<path d="M357.6,23.6l12.7,34.2l11.9-34.2h13.4l-28.1,76.6h-13l9.4-25.5l-19.8-51L357.6,23.6L357.6,23.6z"/>
</g>
</svg>
