<?xml version="1.0" encoding="UTF-8"?>
<svg width="100px" height="100px" viewBox="0 0 100 100" version="1.1" xmlns="http://www.w3.org/2000/svg" xmlns:xlink="http://www.w3.org/1999/xlink">
    <!-- Generator: Sketch 52.6 (67491) - http://www.bohemiancoding.com/sketch -->
    <title>77</title>
    <desc>Created with Sketch.</desc>
    <defs>
        <polygon id="path-1" points="0 0.107424517 25.847519 0.107424517 25.847519 38 0 38"></polygon>
        <polygon id="path-3" points="0.184169877 0.107424517 25.7756168 0.107424517 25.7756168 38 0.184169877 38"></polygon>
    </defs>
    <g id="77" stroke="none" stroke-width="1" fill="none" fill-rule="evenodd">
        <g transform="translate(22.000000, 31.000000)">
            <g id="Group-3">
                <mask id="mask-2" fill="white">
                    <use xlink:href="#path-1"></use>
                </mask>
                <g id="Clip-2"></g>
                <path d="M0,12.5301443 L10.1487414,12.5301443 C9.85916638,21.8424659 6.55855603,30.6056823 0,34.9877399 L0,38.0001797 C16.7817336,37.8635775 25.847519,22.2522728 25.847519,5.95615924 C25.847519,3.89993536 25.6823069,1.94885928 25.3918241,0.107424517 L0,0.107424517 L0,12.5301443 Z" id="Fill-1" fill="#000000" mask="url(#mask-2)"></path>
            </g>
            <g id="Group-6" transform="translate(30.000000, 0.000000)">
                <mask id="mask-4" fill="white">
                    <use xlink:href="#path-3"></use>
                </mask>
                <g id="Clip-5"></g>
                <path d="M0.184169877,12.5301443 L10.8597057,12.5301443 C10.5729995,21.8424659 6.67775012,30.6056823 0.184169877,34.9877399 L0.184169877,38.0001797 C16.7996464,37.8635775 25.7756168,22.2522728 25.7756168,5.95615924 C25.7756168,3.89993536 25.6120415,1.94885928 25.3244365,0.107424517 L0.184169877,0.107424517 L0.184169877,12.5301443 Z" id="Fill-4" fill="#000000" mask="url(#mask-4)"></path>
            </g>
        </g>
    </g>
</svg>