<?xml version="1.0" encoding="UTF-8"?>
<svg width="76px" height="84px" viewBox="0 0 76 84" version="1.1" xmlns="http://www.w3.org/2000/svg" xmlns:xlink="http://www.w3.org/1999/xlink">
    <!-- Generator: Sketch 52.6 (67491) - http://www.bohemiancoding.com/sketch -->
    <title>Stroke 1</title>
    <desc>Created with Sketch.</desc>
    <g id="Welcome" stroke="none" stroke-width="1" fill="none" fill-rule="evenodd" stroke-linecap="round">
        <g id="Home" transform="translate(-734.000000, -1689.000000)" stroke="#FFFFFF" stroke-width="5">
            <g id="Logos" transform="translate(0.000000, 1439.000000)">
                <g id="Ampthill" transform="translate(672.000000, 192.000000)">
                    <path d="M99.8755701,66.875233 C98.9959426,66.8710642 98.1135358,66.5500627 97.4131689,65.9289039 C96.5307621,65.1465496 95.5747056,64.444793 94.5602853,63.8347511 C86.6992221,59.1434043 76.65785,60.3773842 70.1683388,66.8335445 C62.6824722,74.479217 63.8400232,87.750059 70.3614956,94.2715314 C76.8815783,100.791614 73.9258631,97.0201937 83.0556465,106.149977 C89.917575,113.010516 91.0515024,124.399817 92.1465206,130.5183 C92.7565625,133.924251 95.5496925,138.974119 100.354988,138.974119 M99.505932,138.933839 C104.311227,138.944937 107.115474,133.902017 107.732464,130.497456 C108.842768,124.381752 110.008657,112.993841 116.884482,106.148588 C126.035109,97.0396484 123.072446,100.804121 129.607815,94.2993237 C136.143183,87.7931371 137.329916,74.5236848 129.862114,66.8627265 C123.386499,60.3912803 113.347907,59.133677 105.477116,63.8083484 C104.459916,64.415611 103.50386,65.115978 102.620064,65.8955531 C101.918307,66.5153223 101.034511,66.8335445 100.154883,66.8363238" id="Stroke-1"></path>
                </g>
            </g>
        </g>
    </g>
</svg>