<?xml version="1.0" encoding="UTF-8"?>
<svg width="100px" height="100px" viewBox="0 0 100 100" version="1.1" xmlns="http://www.w3.org/2000/svg" xmlns:xlink="http://www.w3.org/1999/xlink">
    <!-- Generator: Sketch 52.6 (67491) - http://www.bohemiancoding.com/sketch -->
    <title>Ampthill</title>
    <desc>Created with Sketch.</desc>
    <g id="Ampthill" stroke="none" stroke-width="1" fill="none" fill-rule="evenodd" stroke-linecap="round">
        <path d="M50.660997,26.1417197 C50.0390002,26.1387791 49.4150382,25.9123458 48.9197991,25.4741828 C48.2958371,24.922313 47.6197964,24.4272966 46.9024857,23.9969754 C41.3438195,20.6877171 34.2434266,21.5581618 29.6546037,26.1123128 C24.3612441,31.5055411 25.1797644,40.8667426 29.7911875,45.4669644 C34.401628,50.066206 32.311601,47.4058604 38.7673968,53.8459749 C43.6195612,58.685373 44.421377,66.7193423 45.1956794,71.0352973 C45.6270484,73.4378423 47.6021093,77 51,77 M50,77 C53.3845764,77.0078326 55.3597283,73.4489087 55.7943009,71.0462183 C56.5763358,66.7302019 57.3975213,58.6934477 62.2404606,53.862569 C68.6856416,47.4341463 66.5989103,50.0908354 71.2020517,45.5002257 C75.8051931,40.9086354 76.6410601,31.544027 71.381166,26.1374833 C66.8201116,21.5704102 59.7494985,20.6828858 54.205762,23.9819268 C53.4893045,24.4104883 52.8159128,24.904756 52.1934169,25.4549231 C51.6991396,25.8923108 51.0766437,26.1168888 50.4570842,26.1188502" id="Stroke-1" stroke="#FFFFFF" stroke-width="3"></path>
    </g>
</svg>