<?xml version="1.0" encoding="UTF-8"?>
<svg width="49px" height="154px" viewBox="0 0 49 154" version="1.1" xmlns="http://www.w3.org/2000/svg" xmlns:xlink="http://www.w3.org/1999/xlink">
    <!-- Generator: Sketch 52.6 (67491) - http://www.bohemiancoding.com/sketch -->
    <title>Group 7</title>
    <desc>Created with Sketch.</desc>
    <g id="Welcome" stroke="none" stroke-width="1" fill="none" fill-rule="evenodd">
        <g id="Home" transform="translate(-919.000000, -1940.000000)" fill="#FFFFFF">
            <g id="Logos" transform="translate(0.000000, 1439.000000)">
                <g id="Group-7" transform="translate(919.000000, 501.000000)">
                    <path d="M47.1743534,1.5336514 L0,41.0875909 L0.00886236209,77 L2.23686019,72.2117977 L2.22799783,42.1361805 L46.7737746,4.78820233 L46.7737746,34.8763027 L19.1976488,57.5886099 C20.0112136,57.8311409 20.6173992,58.3393858 21.0179779,58.9795961 L49,35.9248923 L49,0 L47.1743534,1.5336514 Z" id="Fill-1"></path>
                    <path d="M0.017724083,41 L0,43.4779301 L0,76.8413628 L27.6797005,97.0777923 C27.989872,96.3918417 28.3106779,95.7112085 28.6917456,95.0571626 L2.22437242,75.7176091 L2.22791724,45.686443 L46.7720828,78.5624431 L46.7614483,108.586519 L48.991138,113 L49,77.4369169 L0.017724083,41 Z" id="Fill-3"></path>
                    <path d="M47.1708746,79 L0,118.309599 L0.00708963322,154 L49,113.049178 L47.1708746,79 Z M46.7703104,112.008791 L2.23500687,149.242934 L2.22791724,119.351758 L30.5634088,95.7383496 C30.955111,95.2172701 31.449613,94.8007609 32.0079216,94.5349041 L46.7703104,82.2328197 L46.7703104,112.008791 Z" id="Fill-5"></path>
                </g>
            </g>
        </g>
    </g>
</svg>