<?xml version="1.0" encoding="UTF-8"?>
<svg width="100px" height="100px" viewBox="0 0 100 100" version="1.1" xmlns="http://www.w3.org/2000/svg" xmlns:xlink="http://www.w3.org/1999/xlink">
    <!-- Generator: Sketch 52.6 (67491) - http://www.bohemiancoding.com/sketch -->
    <title>Brewage</title>
    <desc>Created with Sketch.</desc>
    <defs>
        <polygon id="path-1" points="0 0.780878049 11.3965779 0.780878049 11.3965779 44.8780488 0 44.8780488"></polygon>
        <polygon id="path-3" points="0.189346942 0.780878049 11.5859248 0.780878049 11.5859248 44.8780488 0.189346942 44.8780488"></polygon>
        <polygon id="path-5" points="0.378787992 0.780878049 11.7748953 0.780878049 11.7748953 44.8780488 0.378787992 44.8780488"></polygon>
    </defs>
    <g id="Brewage" stroke="none" stroke-width="1" fill="none" fill-rule="evenodd">
        <g id="Group-10" transform="translate(27.000000, 28.000000)">
            <g id="Group-3">
                <mask id="mask-2" fill="white">
                    <use xlink:href="#path-1"></use>
                </mask>
                <g id="Clip-2"></g>
                <path d="M0,6.34295122 C0,3.09864228 2.66610281,0.780878049 5.73122702,0.780878049 C8.79729231,0.780878049 11.3965779,3.09864228 11.3965779,6.34295122 C11.3965779,9.65364228 8.79729231,11.9704715 5.73122702,11.9704715 C2.66610281,11.9704715 0,9.65364228 0,6.34295122 Z M1.19894634,44.8782358 L10.1957493,44.8782358 L10.1957493,16.6714472 L1.19894634,16.6714472 L1.19894634,44.8782358 Z" id="Fill-1" fill="#FFFFFF" mask="url(#mask-2)"></path>
            </g>
            <g id="Group-6" transform="translate(17.000000, 0.000000)">
                <mask id="mask-4" fill="white">
                    <use xlink:href="#path-3"></use>
                </mask>
                <g id="Clip-5"></g>
                <path d="M0.189346942,6.34295122 C0.189346942,3.09864228 2.85544976,0.780878049 5.92057396,0.780878049 C8.98663925,0.780878049 11.5859248,3.09864228 11.5859248,6.34295122 C11.5859248,9.65364228 8.98663925,11.9704715 5.92057396,11.9704715 C2.85544976,11.9704715 0.189346942,9.65364228 0.189346942,6.34295122 Z M1.38923437,44.8782358 L10.3860374,44.8782358 L10.3860374,16.6714472 L1.38923437,16.6714472 L1.38923437,44.8782358 Z" id="Fill-4" fill="#FFFFFF" mask="url(#mask-4)"></path>
            </g>
            <g id="Group-9" transform="translate(34.000000, 0.000000)">
                <mask id="mask-6" fill="white">
                    <use xlink:href="#path-5"></use>
                </mask>
                <g id="Clip-8"></g>
                <path d="M0.378787992,6.34295122 C0.378787992,3.09864228 3.04489081,0.780878049 6.11001501,0.780878049 C9.1760803,0.780878049 11.7753659,3.09864228 11.7753659,6.34295122 C11.7753659,9.65364228 9.1760803,11.9704715 6.11001501,11.9704715 C3.04489081,11.9704715 0.378787992,9.65364228 0.378787992,6.34295122 Z M1.57773433,44.8782358 L10.5745373,44.8782358 L10.5745373,16.6714472 L1.57773433,16.6714472 L1.57773433,44.8782358 Z" id="Fill-7" fill="#FFFFFF" mask="url(#mask-6)"></path>
            </g>
        </g>
    </g>
</svg>