<?xml version="1.0" encoding="UTF-8"?>
<svg width="100px" height="100px" viewBox="0 0 100 100" version="1.1" xmlns="http://www.w3.org/2000/svg" xmlns:xlink="http://www.w3.org/1999/xlink">
    <!-- Generator: Sketch 52.6 (67491) - http://www.bohemiancoding.com/sketch -->
    <title>Fand</title>
    <desc>Created with Sketch.</desc>
    <g id="Fand" stroke="none" stroke-width="1" fill="none" fill-rule="evenodd">
        <g id="FAND-logo-white" transform="translate(12.000000, 35.000000)" fill="#FFFFFF">
            <polygon id="Path" points="8.31578947 17.1019618 8.31578947 30 0 30 0 0 14 0 14 6.05765381 8.31578947 6.05765381 8.31578947 11.044308 13.5589474 11.044308 13.5589474 17.1019618"></polygon>
            <path d="M14,30 L18.3189572,0 L29.4295025,0 L34,30 L25.6594531,30 L25.3661592,26.9501535 L22.0951169,26.9501535 L21.8863486,30 L14,30 Z M22.5951423,20.522154 L24.7337441,20.522154 L23.562605,7.87034566 L22.5951423,20.522154 Z" id="Shape" fill-rule="nonzero"></path>
            <polygon id="Path" points="43.1943203 14.1341919 43.1943203 30 36 30 36 0 44.5562451 0 47.8056797 16.0299613 47.8056797 0 55 0 55 30 46.5266895 30"></polygon>
            <path d="M66.8190067,0 C72.6839817,0 76,3.13192313 76,9.0654611 L76,21.2638463 C76,27.1973842 72.6839817,30 66.8190067,30 L57,30 L57,0 L66.8190067,0 Z M66.5196153,24.3547311 C67.284612,24.3547311 67.7512497,23.6951154 67.7512497,22.5 L67.7512497,7.5 C67.7512497,6.30488456 67.284612,5.64526892 66.5196153,5.64526892 L65.1609976,5.64526892 L65.1609976,24.3547311 L66.5196153,24.3547311 Z" id="Shape" fill-rule="nonzero"></path>
        </g>
    </g>
</svg>