<?xml version="1.0" encoding="UTF-8"?>
<svg width="100px" height="100px" viewBox="0 0 100 100" version="1.1" xmlns="http://www.w3.org/2000/svg" xmlns:xlink="http://www.w3.org/1999/xlink">
    <!-- Generator: Sketch 52.6 (67491) - http://www.bohemiancoding.com/sketch -->
    <title>Livitay</title>
    <desc>Created with Sketch.</desc>
    <defs>
        <polygon id="path-1" points="0.417222222 0.454888889 9.28888889 0.454888889 9.28888889 9.10711111 0.417222222 9.10711111"></polygon>
        <polygon id="path-3" points="0 0.591642857 41.1214054 0.591642857 41.1214054 55 0 55"></polygon>
    </defs>
    <g id="Livitay" stroke="none" stroke-width="1" fill="none" fill-rule="evenodd">
        <g id="Group-7" transform="translate(23.000000, 23.000000)">
            <g id="Group-3" transform="translate(45.000000, 31.000000)">
                <mask id="mask-2" fill="white">
                    <use xlink:href="#path-1"></use>
                </mask>
                <g id="Clip-2"></g>
                <path d="M0.417222222,4.79488889 C0.417222222,3.586 0.847222222,2.56044444 1.70833333,1.71822222 C2.56944444,0.877111111 3.61277778,0.454888889 4.83944444,0.454888889 C6.04833333,0.454888889 7.09166667,0.877111111 7.97055556,1.71822222 C8.84944444,2.56044444 9.28944444,3.586 9.28944444,4.79488889 C9.28944444,6.02155556 8.85388889,7.046 7.985,7.87155556 C7.115,8.69488889 6.06611111,9.10711111 4.83944444,9.10711111 C3.59388889,9.10711111 2.54611111,8.69488889 1.69388889,7.87155556 C0.842777778,7.046 0.417222222,6.02155556 0.417222222,4.79488889" id="Fill-1" fill="#000000" mask="url(#mask-2)"></path>
            </g>
            <g id="Group-6">
                <mask id="mask-4" fill="white">
                    <use xlink:href="#path-3"></use>
                </mask>
                <g id="Clip-5"></g>
                <path d="M12.1300541,38.7672551 C9.7667027,38.7672551 7.84491892,40.6686837 7.84491892,43.0056224 C7.84491892,45.3425612 9.7667027,47.2439898 12.1300541,47.2439898 C14.4934054,47.2439898 16.4151892,45.3425612 16.4151892,43.0056224 L16.4151892,38.7672551 L12.1300541,38.7672551 Z M12.1300541,55.0001122 C5.44183784,55.0001122 0,49.6202143 0,43.0056224 C0,36.3921531 5.44183784,31.0111327 12.1300541,31.0111327 L16.4151892,31.0111327 L16.4151892,0.591642857 L24.2612432,0.591642857 L24.2612432,31.0111327 L41.1214054,31.0111327 L41.1214054,38.7672551 L24.2612432,38.7672551 L24.2612432,43.0056224 C24.2612432,49.6202143 18.8194054,55.0001122 12.1300541,55.0001122 Z" id="Fill-4" fill="#000000" mask="url(#mask-4)"></path>
            </g>
        </g>
    </g>
</svg>