<?xml version="1.0" encoding="UTF-8"?>
<svg width="59px" height="59px" viewBox="0 0 59 59" version="1.1" xmlns="http://www.w3.org/2000/svg" xmlns:xlink="http://www.w3.org/1999/xlink">
    <!-- Generator: Sketch 52.6 (67491) - http://www.bohemiancoding.com/sketch -->
    <title>Group 7</title>
    <desc>Created with Sketch.</desc>
    <defs>
        <polygon id="path-1" points="0.452132653 0.49128 10.0661224 0.49128 10.0661224 9.83568 0.452132653 9.83568"></polygon>
        <polygon id="path-3" points="0 0.63252 43.6190612 0.63252 43.6190612 58.8 0 58.8"></polygon>
    </defs>
    <g id="Welcome" stroke="none" stroke-width="1" fill="none" fill-rule="evenodd">
        <g id="Home" transform="translate(-590.000000, -2136.000000)">
            <g id="Logos" transform="translate(0.000000, 1439.000000)">
                <g id="Group-7" transform="translate(590.000000, 696.000000)">
                    <g id="Group-3" transform="translate(48.163265, 32.967240)">
                        <mask id="mask-2" fill="white">
                            <use xlink:href="#path-1"></use>
                        </mask>
                        <g id="Clip-2"></g>
                        <path d="M0.452132653,5.17848 C0.452132653,3.87288 0.918112245,2.76528 1.85127551,1.85568 C2.78443878,0.94728 3.91507143,0.49128 5.24437755,0.49128 C6.55441837,0.49128 7.68505102,0.94728 8.63747959,1.85568 C9.58990816,2.76528 10.0667245,3.87288 10.0667245,5.17848 C10.0667245,6.50328 9.59472449,7.60968 8.65313265,8.50128 C7.71033673,9.39048 6.57368367,9.83568 5.24437755,9.83568 C3.89460204,9.83568 2.75915306,9.39048 1.83562245,8.50128 C0.913295918,7.60968 0.452132653,6.50328 0.452132653,5.17848" id="Fill-1" fill="#000000" mask="url(#mask-2)"></path>
                    </g>
                    <g id="Group-6" transform="translate(0.000000, 0.567240)">
                        <mask id="mask-4" fill="white">
                            <use xlink:href="#path-3"></use>
                        </mask>
                        <g id="Clip-5"></g>
                        <path d="M12.8668163,41.44572 C10.3599184,41.44572 8.32140816,43.47852 8.32140816,45.97692 C8.32140816,48.47532 10.3599184,50.50812 12.8668163,50.50812 C15.3737143,50.50812 17.4122245,48.47532 17.4122245,45.97692 L17.4122245,41.44572 L12.8668163,41.44572 Z M12.8668163,58.80012 C5.77236735,58.80012 0,53.04852 0,45.97692 C0,38.90652 5.77236735,33.15372 12.8668163,33.15372 L17.4122245,33.15372 L17.4122245,0.63252 L25.7348367,0.63252 L25.7348367,33.15372 L43.6190612,33.15372 L43.6190612,41.44572 L25.7348367,41.44572 L25.7348367,45.97692 C25.7348367,53.04852 19.9624694,58.80012 12.8668163,58.80012 Z" id="Fill-4" fill="#000000" mask="url(#mask-4)"></path>
                    </g>
                </g>
            </g>
        </g>
    </g>
</svg>