<?xml version="1.0" encoding="utf-8"?>
<!-- Generator: Adobe Illustrator 22.1.0, SVG Export Plug-In . SVG Version: 6.00 Build 0)  -->
<svg version="1.1" id="Layer_1" xmlns="http://www.w3.org/2000/svg" xmlns:xlink="http://www.w3.org/1999/xlink" x="0px" y="0px"
	 viewBox="0 0 1191 303" style="enable-background:new 0 0 1191 303;" xml:space="preserve">
<style type="text/css">
	.st0{enable-background:new    ;}
	.st1{fill:#1E24FB;}
</style>
<title>Rob Day</title>
<desc>Created with Sketch.</desc>
<g id="Welcome">
	<g id="Home" transform="translate(-44.000000, -239.000000)">
		<g id="Logo" transform="translate(22.000000, 155.000000)">
			<g class="st0">
				<path class="st1" d="M22.7,318V93.9h69.2c23.9,0,42.9,6.6,57.3,19.7c14.3,13.1,21.5,30.4,21.5,51.7c0,13.9-3.4,26.1-10.2,36.6
					c-6.8,10.5-16.4,18.6-28.8,24.3l48.6,91.8H130l-43.4-83.8h-20V318H22.7z M66.6,195.2h25.3c10.4,0,18.6-2.6,24.6-7.7
					c6-5.1,9-12.5,9-22.2c0-9.9-3-17.4-9-22.6c-6-5.2-14.2-7.7-24.6-7.7H66.6V195.2z"/>
				<path class="st1" d="M198,236.9c0-24.9,8-45.3,24-61c16-15.8,36.2-23.6,60.7-23.6c24.6,0,44.9,7.9,61,23.6
					c16.1,15.8,24.1,36.1,24.1,61c0,16.4-3.7,31.1-11.1,44.1c-7.4,12.9-17.6,23-30.5,30s-27.4,10.6-43.5,10.6
					c-24.5,0-44.7-7.9-60.7-23.6C206,282.2,198,261.9,198,236.9z M240.8,236.9c0,13.5,3.9,24.7,11.8,33.7c7.9,8.9,18,13.4,30.4,13.4
					c12.5,0,22.6-4.5,30.4-13.4s11.6-20.1,11.6-33.7c0-13.6-3.9-24.9-11.6-33.7c-7.8-8.9-17.9-13.3-30.4-13.3
					c-12.4,0-22.5,4.4-30.4,13.3C244.8,212,240.8,223.3,240.8,236.9z"/>
				<path class="st1" d="M402.6,318V84.4h41.7v88.9c4.6-6.2,11.1-11.3,19.5-15.2s18.2-5.9,29.3-5.9c14.2,0,27.1,3.7,38.6,11.2
					c11.5,7.4,20.5,17.6,26.9,30.5s9.6,27.2,9.6,42.9s-3.2,30.1-9.6,43c-6.4,12.9-15.4,23.1-26.9,30.6s-24.4,11.2-38.6,11.2
					c-22.9,0-40.1-8.4-51.6-25.3l-3.3,21.7L402.6,318L402.6,318z M443.5,237.7c0,13.8,4.1,24.7,12.2,32.7
					c8.2,8.1,17.8,12.1,28.8,12.1c11.6,0,21.4-4.2,29.2-12.7c7.8-8.5,11.7-19.5,11.7-33.1c0-13.4-3.9-24.4-11.8-32.8
					c-7.9-8.4-17.5-12.7-29.1-12.7c-6.9,0-13.3,1.7-19.4,5s-11.2,8.5-15.3,15.4c-4.1,6.9-6.2,15-6.3,24.1L443.5,237.7L443.5,237.7z"
					/>
				<path class="st1" d="M668.3,318V93.9h83.9c17.4,0,33.4,2.7,47.9,8.2s26.7,13.1,36.6,22.9c9.9,9.8,17.6,21.6,23,35.4
					c5.5,13.8,8.2,29,8.2,45.4s-2.7,31.6-8.2,45.5s-13.2,25.7-23,35.5c-9.9,9.8-22.1,17.4-36.6,22.9s-30.5,8.2-47.9,8.2h-83.9V318z
					 M712.2,276.9h40c22.3,0,39.5-6.2,51.7-18.6s18.3-29.9,18.3-52.4s-6.1-39.9-18.2-52.3c-12.1-12.4-29.4-18.6-51.8-18.6h-40V276.9
					z"/>
				<path class="st1" d="M894.9,272.3c0-7.3,1.2-13.7,3.7-19.2c2.4-5.5,6-10,10.7-13.5c4.7-3.6,9.9-6.4,15.7-8.5s12.5-3.8,20.1-5
					l42-7.6v-5.7c0-7.4-1.9-13-5.8-17c-3.9-4-9.5-6-16.9-6c-7,0-12.7,1.8-17.3,5.3s-6.9,8.2-6.9,14h-40.4
					c0.9-16.9,7.2-30.6,18.8-41.2c11.6-10.6,26.9-15.9,45.7-15.9c19.8,0,35.5,5,47.1,15.1s17.4,24.8,17.4,44.1V318h-35.6l-2.7-22
					c-10.2,17-25.6,25.6-46.3,25.6c-14.6,0-26.5-4.5-35.6-13.4C899.5,299.3,894.9,287.3,894.9,272.3z M936.6,269.5
					c0,4.4,1.7,7.9,5,10.5s7.9,3.9,13.9,3.9c5.2,0,10.1-1.2,14.7-3.5c4.6-2.3,8.3-5.7,11.1-10c3.8-5.4,5.8-11.9,5.8-19.7v-4.5
					l-32.4,6.7c-5.9,1.2-10.4,3.1-13.5,5.7S936.6,264.8,936.6,269.5z"/>
				<path class="st1" d="M1051.8,155.8h44.5l31.8,99.5l3.1,14.1l3.3-14.1l31.8-99.5h45.2l-83.7,230.9h-43.3l24.6-70.6L1051.8,155.8z
					"/>
			</g>
		</g>
	</g>
</g>
</svg>
