<?xml version="1.0" encoding="UTF-8"?>
<svg width="72px" height="107px" viewBox="0 0 72 107" version="1.1" xmlns="http://www.w3.org/2000/svg" xmlns:xlink="http://www.w3.org/1999/xlink">
    <!-- Generator: Sketch 52.6 (67491) - http://www.bohemiancoding.com/sketch -->
    <title>Fill 1</title>
    <desc>Created with Sketch.</desc>
    <g id="Welcome" stroke="none" stroke-width="1" fill="none" fill-rule="evenodd">
        <g id="Home" transform="translate(-1013.000000, -1529.000000)" fill="#000000">
            <g id="Logos" transform="translate(0.000000, 1439.000000)">
                <g id="Sean" transform="translate(906.000000, 0.000000)">
                    <path d="M116.709586,168.168919 L107,187.893815 L110.92196,189.794169 L112.015734,187.571143 C116.262701,190.236292 120.940928,192.453113 126.100415,194.171963 C131.747412,196.056804 137.560038,197 143.539855,197 C148.949348,197 153.76664,196.173152 157.990169,194.525662 C162.210573,192.878171 165.820026,190.639632 168.810716,187.811596 C171.799844,184.98511 174.079581,181.688578 175.643677,177.918897 C177.209336,174.152318 177.993728,170.191826 177.993728,166.043625 C177.993728,162.652463 177.568719,159.566909 176.710888,156.788515 C175.857744,154.01012 174.410838,151.393061 172.368606,148.941993 C170.326374,146.492475 167.601315,144.160858 164.180928,141.94714 C161.779314,140.389625 158.929252,138.818149 155.680744,137.237365 L156.712016,135.046916 L152.95256,133.300142 L143.711734,153.187926 L147.344626,154.953316 L148.632153,152.215255 C149.247792,152.542581 149.833742,152.866805 150.374379,153.183272 C152.936934,154.689593 154.930728,156.175747 156.352634,157.635529 C157.777664,159.096863 158.726123,160.579914 159.19957,162.087787 C159.674581,163.595659 159.913648,165.246252 159.913648,167.034912 C159.913648,168.825123 159.604267,170.545524 158.987066,172.194566 C158.368302,173.843608 157.421407,175.281671 156.140129,176.504103 C154.857289,177.729637 153.222878,178.720924 151.229085,179.473309 C149.235292,180.227245 146.863365,180.604213 144.108618,180.604213 C139.553831,180.604213 134.927169,179.755647 130.227067,178.060066 C126.433234,176.69026 122.817531,174.869023 119.364331,172.636689 L120.628421,170.069272 L116.709586,168.168919 Z M179,95.5645461 L175.067102,93.6952185 L173.870201,96.1804158 C171.221706,94.666338 168.098201,93.3337634 164.468435,92.1919999 C159.816771,90.7306666 154.930728,90 149.804054,90 C144.394562,90 139.553831,90.8020269 135.281864,92.4029779 C131.011459,94.0070316 127.403568,96.1493896 124.462879,98.8347058 C121.519065,101.521573 119.289329,104.608679 117.772109,108.092919 C116.250201,111.580262 115.492372,115.210326 115.492372,118.976904 C115.492372,125.196103 117.343974,130.687737 121.04718,135.4425 C124.350377,139.691536 129.823933,143.579117 137.436598,147.112999 L136.274073,149.582683 L139.742898,151.196045 L149.089976,131.278786 L145.636776,129.676284 L144.561753,131.967567 C141.542937,130.363514 139.177261,128.835474 137.491287,127.386551 C134.688101,124.983574 133.289633,122.039189 133.289633,118.553397 C133.289633,115.067605 134.592786,112.050309 137.206906,109.506162 C139.816337,106.962015 143.871113,105.689941 149.377482,105.689941 C151.177521,105.689941 153.007248,105.90247 154.857289,106.327529 C156.708891,106.749485 158.560494,107.293995 160.412097,107.95175 C162.263699,108.611056 164.0153,109.389814 165.677836,110.283368 C166.057532,110.489692 166.407539,110.699119 166.776297,110.906994 L165.518457,113.513193 L169.452918,115.384072 L179,95.5645461 Z" id="Fill-1"></path>
                </g>
            </g>
        </g>
    </g>
</svg>