<?xml version="1.0" encoding="UTF-8"?>
<svg width="100px" height="100px" viewBox="0 0 100 100" version="1.1" xmlns="http://www.w3.org/2000/svg" xmlns:xlink="http://www.w3.org/1999/xlink">
    <!-- Generator: Sketch 52.6 (67491) - http://www.bohemiancoding.com/sketch -->
    <title>Sean</title>
    <desc>Created with Sketch.</desc>
    <g id="Sean" stroke="none" stroke-width="1" fill="none" fill-rule="evenodd">
        <path d="M36.7868383,61.4217525 L32,70.7113633 L33.9335314,71.6063514 L34.4727633,70.559398 C36.5665236,71.8145731 38.8728953,72.8586041 41.4165291,73.6681116 C44.2005062,74.5557937 47.0661384,75 50.0141961,75 C52.6810829,75 55.0560141,74.6105889 57.1382194,73.834689 C59.2188841,73.0587891 60.9983493,72.0045297 62.4727633,70.6726414 C63.946407,69.3414836 65.0703202,67.7889533 65.8414218,66.0135892 C66.6132937,64.2396863 67,62.3744581 67,60.420827 C67,58.82373 66.7904699,57.3705616 66.367558,56.0620525 C65.9469572,54.7535434 65.2336305,53.521017 64.2268075,52.366665 C63.2199846,51.2130437 61.8765269,50.1149481 60.1902718,49.0723784 C59.0062727,48.3388534 57.6011885,47.5987531 55.9996699,46.8542692 L56.5080885,45.8226584 L54.6546715,45 L50.0989325,54.3663241 L51.8899527,55.1977497 L52.5247056,53.9082363 C52.8282161,54.0623935 53.1170903,54.2150894 53.383625,54.3641323 C54.6469682,55.0735473 55.6299109,55.7734645 56.3309123,56.4609615 C57.0334544,57.149189 57.5010454,57.847645 57.7344558,58.5577907 C57.9686365,59.2679363 58.0864972,60.0452974 58.0864972,60.887682 C58.0864972,61.7307973 57.9339716,62.5410355 57.6296908,63.317666 C57.3246396,64.0942964 56.8578189,64.771565 56.2261472,65.3472797 C55.5937053,65.9244557 54.7879388,66.3913107 53.8049961,66.7456529 C52.8220535,67.1007257 51.6526907,67.2782621 50.2945967,67.2782621 C48.0490811,67.2782621 45.7681303,66.8786226 43.4509739,66.080074 C41.5806097,65.434952 39.7980632,64.5772247 38.0956311,63.5258877 L38.7188291,62.3167405 L36.7868383,61.4217525 Z M68,27.5460353 L66.0183053,26.6907321 L65.415215,27.827824 C64.0807007,27.1350639 62.5068399,26.5253498 60.677886,26.0029406 C58.3340222,25.3343135 55.8720598,25 53.2888495,25 C50.5631335,25 48.1240035,25.3669641 45.9714595,26.0994727 C43.8197028,26.8334009 42.0017715,27.8136281 40.5200276,29.0422835 C39.036709,30.2716488 37.9131975,31.6841411 37.1487058,33.2783411 C36.3818522,34.8739607 36,36.5348814 36,38.258264 C36,41.1038329 36.932979,43.6165078 38.7989371,45.79203 C40.4633402,47.736159 43.2213365,49.5149057 47.0571794,51.1318191 L46.4714103,52.261813 L48.2192698,53 L52.9290424,43.8869398 L51.1890562,43.1537214 L50.6473772,44.2020888 C49.1262671,43.4681606 47.9342584,42.7690124 47.0847358,42.1060637 C45.6722764,41.006591 44.9676213,39.6593997 44.9676213,38.06449 C44.9676213,36.4695802 45.6242496,35.0890286 46.9414428,33.9249645 C48.256274,32.7609004 50.29938,32.1788684 53.07391,32.1788684 C53.9809074,32.1788684 54.9028639,32.2761103 55.8350556,32.4705942 C56.7680346,32.6636585 57.7010137,32.9127966 58.6339927,33.2137497 C59.5669718,33.5154127 60.4495621,33.8717299 61.2872749,34.2805719 C61.4785946,34.3749747 61.6549552,34.470797 61.8407637,34.5659096 L61.2069678,35.7583654 L63.1894499,36.6143784 L68,27.5460353 Z" id="Fill-1" fill="#000000"></path>
    </g>
</svg>